{
	"patcher" : 	{
		"fileversion" : 1,
		"appversion" : 		{
			"major" : 8,
			"minor" : 0,
			"revision" : 6,
			"architecture" : "x64",
			"modernui" : 1
		}
,
		"classnamespace" : "box",
		"rect" : [ 549.0, 84.0, 986.0, 705.0 ],
		"bglocked" : 0,
		"openinpresentation" : 0,
		"default_fontsize" : 12.0,
		"default_fontface" : 0,
		"default_fontname" : "Arial",
		"gridonopen" : 1,
		"gridsize" : [ 15.0, 15.0 ],
		"gridsnaponopen" : 1,
		"objectsnaponopen" : 1,
		"statusbarvisible" : 2,
		"toolbarvisible" : 1,
		"lefttoolbarpinned" : 0,
		"toptoolbarpinned" : 0,
		"righttoolbarpinned" : 0,
		"bottomtoolbarpinned" : 0,
		"toolbars_unpinned_last_save" : 4,
		"tallnewobj" : 0,
		"boxanimatetime" : 200,
		"enablehscroll" : 1,
		"enablevscroll" : 1,
		"devicewidth" : 0.0,
		"description" : "",
		"digest" : "",
		"tags" : "",
		"style" : "",
		"subpatcher_template" : "",
		"boxes" : [ 			{
				"box" : 				{
					"id" : "obj-91",
					"maxclass" : "message",
					"numinlets" : 2,
					"numoutlets" : 1,
					"outlettype" : [ "" ],
					"patching_rect" : [ 1090.333333432674408, 285.33333420753479, 43.333333134651213, 22.0 ],
					"text" : "set $1"
				}

			}
, 			{
				"box" : 				{
					"id" : "obj-90",
					"maxclass" : "message",
					"numinlets" : 2,
					"numoutlets" : 1,
					"outlettype" : [ "" ],
					"patching_rect" : [ 938.416666865348816, 281.33333420753479, 43.333333134651213, 22.0 ],
					"text" : "set $1"
				}

			}
, 			{
				"box" : 				{
					"id" : "obj-87",
					"maxclass" : "message",
					"numinlets" : 2,
					"numoutlets" : 1,
					"outlettype" : [ "" ],
					"patching_rect" : [ 789.833333432674408, 281.33333420753479, 43.333333134651213, 22.0 ],
					"text" : "set $1"
				}

			}
, 			{
				"box" : 				{
					"id" : "obj-79",
					"maxclass" : "message",
					"numinlets" : 2,
					"numoutlets" : 1,
					"outlettype" : [ "" ],
					"patching_rect" : [ 648.375, 309.33333420753479, 43.333333134651213, 22.0 ],
					"text" : "set $1"
				}

			}
, 			{
				"box" : 				{
					"id" : "obj-80",
					"maxclass" : "message",
					"numinlets" : 2,
					"numoutlets" : 1,
					"outlettype" : [ "" ],
					"patching_rect" : [ 589.0, 309.33333420753479, 43.333333134651213, 22.0 ],
					"text" : "set $1"
				}

			}
, 			{
				"box" : 				{
					"id" : "obj-81",
					"maxclass" : "newobj",
					"numinlets" : 1,
					"numoutlets" : 2,
					"outlettype" : [ "bang", "" ],
					"patching_rect" : [ 654.25, 277.33333420753479, 33.25, 22.0 ],
					"text" : "t b s"
				}

			}
, 			{
				"box" : 				{
					"id" : "obj-82",
					"maxclass" : "message",
					"numinlets" : 2,
					"numoutlets" : 1,
					"outlettype" : [ "" ],
					"patching_rect" : [ 610.75, 280.33333420753479, 22.0, 22.0 ],
					"text" : "1"
				}

			}
, 			{
				"box" : 				{
					"id" : "obj-83",
					"maxclass" : "newobj",
					"numinlets" : 2,
					"numoutlets" : 2,
					"outlettype" : [ "bang", "" ],
					"patching_rect" : [ 589.0, 250.33333420753479, 100.0, 22.0 ],
					"text" : "select \"0\""
				}

			}
, 			{
				"box" : 				{
					"id" : "obj-84",
					"maxclass" : "message",
					"numinlets" : 2,
					"numoutlets" : 1,
					"outlettype" : [ "" ],
					"patching_rect" : [ 589.0, 280.33333420753479, 20.0, 22.0 ],
					"text" : "0"
				}

			}
, 			{
				"box" : 				{
					"id" : "obj-73",
					"maxclass" : "message",
					"numinlets" : 2,
					"numoutlets" : 1,
					"outlettype" : [ "" ],
					"patching_rect" : [ 469.375, 309.33333420753479, 43.333333134651213, 22.0 ],
					"text" : "set $1"
				}

			}
, 			{
				"box" : 				{
					"id" : "obj-74",
					"maxclass" : "message",
					"numinlets" : 2,
					"numoutlets" : 1,
					"outlettype" : [ "" ],
					"patching_rect" : [ 410.0, 309.33333420753479, 43.333333134651213, 22.0 ],
					"text" : "set $1"
				}

			}
, 			{
				"box" : 				{
					"id" : "obj-75",
					"maxclass" : "newobj",
					"numinlets" : 1,
					"numoutlets" : 2,
					"outlettype" : [ "bang", "" ],
					"patching_rect" : [ 475.25, 277.33333420753479, 33.25, 22.0 ],
					"text" : "t b s"
				}

			}
, 			{
				"box" : 				{
					"id" : "obj-76",
					"maxclass" : "message",
					"numinlets" : 2,
					"numoutlets" : 1,
					"outlettype" : [ "" ],
					"patching_rect" : [ 431.75, 280.33333420753479, 22.0, 22.0 ],
					"text" : "1"
				}

			}
, 			{
				"box" : 				{
					"id" : "obj-77",
					"maxclass" : "newobj",
					"numinlets" : 2,
					"numoutlets" : 2,
					"outlettype" : [ "bang", "" ],
					"patching_rect" : [ 410.0, 250.33333420753479, 100.0, 22.0 ],
					"text" : "select \"0\""
				}

			}
, 			{
				"box" : 				{
					"id" : "obj-78",
					"maxclass" : "message",
					"numinlets" : 2,
					"numoutlets" : 1,
					"outlettype" : [ "" ],
					"patching_rect" : [ 410.0, 280.33333420753479, 20.0, 22.0 ],
					"text" : "0"
				}

			}
, 			{
				"box" : 				{
					"id" : "obj-67",
					"maxclass" : "message",
					"numinlets" : 2,
					"numoutlets" : 1,
					"outlettype" : [ "" ],
					"patching_rect" : [ 289.375, 313.33333420753479, 43.333333134651213, 22.0 ],
					"text" : "set $1"
				}

			}
, 			{
				"box" : 				{
					"id" : "obj-68",
					"maxclass" : "message",
					"numinlets" : 2,
					"numoutlets" : 1,
					"outlettype" : [ "" ],
					"patching_rect" : [ 230.0, 313.33333420753479, 43.333333134651213, 22.0 ],
					"text" : "set $1"
				}

			}
, 			{
				"box" : 				{
					"id" : "obj-69",
					"maxclass" : "newobj",
					"numinlets" : 1,
					"numoutlets" : 2,
					"outlettype" : [ "bang", "" ],
					"patching_rect" : [ 295.25, 281.33333420753479, 33.25, 22.0 ],
					"text" : "t b s"
				}

			}
, 			{
				"box" : 				{
					"id" : "obj-70",
					"maxclass" : "message",
					"numinlets" : 2,
					"numoutlets" : 1,
					"outlettype" : [ "" ],
					"patching_rect" : [ 251.75, 284.33333420753479, 22.0, 22.0 ],
					"text" : "1"
				}

			}
, 			{
				"box" : 				{
					"id" : "obj-71",
					"maxclass" : "newobj",
					"numinlets" : 2,
					"numoutlets" : 2,
					"outlettype" : [ "bang", "" ],
					"patching_rect" : [ 230.0, 254.33333420753479, 100.0, 22.0 ],
					"text" : "select \"0\""
				}

			}
, 			{
				"box" : 				{
					"id" : "obj-72",
					"maxclass" : "message",
					"numinlets" : 2,
					"numoutlets" : 1,
					"outlettype" : [ "" ],
					"patching_rect" : [ 230.0, 284.33333420753479, 20.0, 22.0 ],
					"text" : "0"
				}

			}
, 			{
				"box" : 				{
					"id" : "obj-66",
					"maxclass" : "message",
					"numinlets" : 2,
					"numoutlets" : 1,
					"outlettype" : [ "" ],
					"patching_rect" : [ 112.625, 313.33333420753479, 43.333333134651213, 22.0 ],
					"text" : "set $1"
				}

			}
, 			{
				"box" : 				{
					"id" : "obj-65",
					"maxclass" : "message",
					"numinlets" : 2,
					"numoutlets" : 1,
					"outlettype" : [ "" ],
					"patching_rect" : [ 53.25, 313.33333420753479, 43.333333134651213, 22.0 ],
					"text" : "set $1"
				}

			}
, 			{
				"box" : 				{
					"id" : "obj-62",
					"maxclass" : "message",
					"numinlets" : 2,
					"numoutlets" : 1,
					"outlettype" : [ "" ],
					"patching_rect" : [ 702.66666567325592, 563.0, 50.0, 22.0 ],
					"text" : "set $1"
				}

			}
, 			{
				"box" : 				{
					"id" : "obj-60",
					"maxclass" : "number",
					"numinlets" : 1,
					"numoutlets" : 2,
					"outlettype" : [ "", "bang" ],
					"parameter_enable" : 0,
					"patching_rect" : [ 650.999998211860657, 116.0, 27.333332657814026, 22.0 ]
				}

			}
, 			{
				"box" : 				{
					"id" : "obj-53",
					"maxclass" : "newobj",
					"numinlets" : 1,
					"numoutlets" : 2,
					"outlettype" : [ "bang", "" ],
					"patching_rect" : [ 118.5, 281.33333420753479, 33.25, 22.0 ],
					"text" : "t b s"
				}

			}
, 			{
				"box" : 				{
					"id" : "obj-52",
					"maxclass" : "message",
					"numinlets" : 2,
					"numoutlets" : 1,
					"outlettype" : [ "" ],
					"patching_rect" : [ 75.0, 284.33333420753479, 22.0, 22.0 ],
					"text" : "1"
				}

			}
, 			{
				"box" : 				{
					"id" : "obj-45",
					"maxclass" : "newobj",
					"numinlets" : 2,
					"numoutlets" : 2,
					"outlettype" : [ "bang", "" ],
					"patching_rect" : [ 53.25, 254.33333420753479, 100.0, 22.0 ],
					"text" : "select \"0\""
				}

			}
, 			{
				"box" : 				{
					"id" : "obj-40",
					"maxclass" : "message",
					"numinlets" : 2,
					"numoutlets" : 1,
					"outlettype" : [ "" ],
					"patching_rect" : [ 53.25, 284.33333420753479, 20.0, 22.0 ],
					"text" : "0"
				}

			}
, 			{
				"box" : 				{
					"id" : "obj-5",
					"maxclass" : "newobj",
					"numinlets" : 5,
					"numoutlets" : 5,
					"outlettype" : [ "", "", "", "", "" ],
					"patching_rect" : [ 824.5, 204.0, 269.0, 22.0 ],
					"text" : "route singleTap doubleTap headNod headShake"
				}

			}
, 			{
				"box" : 				{
					"id" : "obj-6",
					"maxclass" : "newobj",
					"numinlets" : 5,
					"numoutlets" : 5,
					"outlettype" : [ "", "", "", "", "" ],
					"patching_rect" : [ 139.5, 204.0, 298.0, 22.0 ],
					"text" : "route accelerometer gyroscope rotation gameRotation"
				}

			}
, 			{
				"box" : 				{
					"id" : "obj-3",
					"maxclass" : "newobj",
					"numinlets" : 3,
					"numoutlets" : 3,
					"outlettype" : [ "", "", "" ],
					"patching_rect" : [ 513.875, 190.0, 174.0, 22.0 ],
					"text" : "route sensorInput gestureInput"
				}

			}
, 			{
				"box" : 				{
					"id" : "obj-2",
					"maxclass" : "newobj",
					"numinlets" : 2,
					"numoutlets" : 2,
					"outlettype" : [ "", "" ],
					"patching_rect" : [ 550.875, 166.0, 100.0, 22.0 ],
					"text" : "route 0"
				}

			}
, 			{
				"box" : 				{
					"id" : "obj-1",
					"maxclass" : "newobj",
					"numinlets" : 0,
					"numoutlets" : 1,
					"outlettype" : [ "" ],
					"patching_rect" : [ 535.25, 142.0, 132.0, 22.0 ],
					"text" : "receive bose-ar-output"
				}

			}
, 			{
				"box" : 				{
					"id" : "obj-776",
					"maxclass" : "newobj",
					"numinlets" : 5,
					"numoutlets" : 5,
					"outlettype" : [ "", "", "", "", "" ],
					"patching_rect" : [ 642.375, 755.33333420753479, 269.0, 22.0 ],
					"text" : "route singleTap doubleTap headNod headShake"
				}

			}
, 			{
				"box" : 				{
					"id" : "obj-772",
					"maxclass" : "newobj",
					"numinlets" : 5,
					"numoutlets" : 5,
					"outlettype" : [ "", "", "", "", "" ],
					"patching_rect" : [ 328.375, 755.33333420753479, 299.0, 22.0 ],
					"text" : "route accelerometer gyroscope rotation gameRotation"
				}

			}
, 			{
				"box" : 				{
					"id" : "obj-769",
					"maxclass" : "newobj",
					"numinlets" : 3,
					"numoutlets" : 3,
					"outlettype" : [ "", "", "" ],
					"patching_rect" : [ 542.625, 721.333339691162109, 171.0, 22.0 ],
					"text" : "route sensorData gestureData"
				}

			}
, 			{
				"box" : 				{
					"id" : "obj-767",
					"maxclass" : "newobj",
					"numinlets" : 2,
					"numoutlets" : 2,
					"outlettype" : [ "", "" ],
					"patching_rect" : [ 542.625, 692.33333420753479, 100.0, 22.0 ],
					"text" : "route 0"
				}

			}
, 			{
				"box" : 				{
					"id" : "obj-766",
					"maxclass" : "newobj",
					"numinlets" : 0,
					"numoutlets" : 1,
					"outlettype" : [ "" ],
					"patching_rect" : [ 542.625, 663.33333420753479, 130.0, 22.0 ],
					"text" : "receive bose-ar-output"
				}

			}
, 			{
				"box" : 				{
					"id" : "obj-765",
					"maxclass" : "newobj",
					"numinlets" : 1,
					"numoutlets" : 0,
					"patching_rect" : [ 428.5, 60.5, 116.0, 22.0 ],
					"text" : "send bose-ar-output"
				}

			}
, 			{
				"box" : 				{
					"id" : "obj-764",
					"maxclass" : "newobj",
					"numinlets" : 1,
					"numoutlets" : 2,
					"outlettype" : [ "bang", "float" ],
					"patching_rect" : [ 683.0, 435.0, 35.0, 22.0 ],
					"text" : "t b f"
				}

			}
, 			{
				"box" : 				{
					"id" : "obj-763",
					"maxclass" : "newobj",
					"numinlets" : 1,
					"numoutlets" : 2,
					"outlettype" : [ "bang", "float" ],
					"patching_rect" : [ 495.0, 435.0, 35.0, 22.0 ],
					"text" : "t b f"
				}

			}
, 			{
				"box" : 				{
					"id" : "obj-762",
					"maxclass" : "newobj",
					"numinlets" : 1,
					"numoutlets" : 2,
					"outlettype" : [ "bang", "float" ],
					"patching_rect" : [ 321.5, 435.0, 35.0, 22.0 ],
					"text" : "t b f"
				}

			}
, 			{
				"box" : 				{
					"id" : "obj-761",
					"maxclass" : "newobj",
					"numinlets" : 1,
					"numoutlets" : 2,
					"outlettype" : [ "bang", "float" ],
					"patching_rect" : [ 132.5, 435.0, 35.0, 22.0 ],
					"text" : "t b f"
				}

			}
, 			{
				"box" : 				{
					"id" : "obj-760",
					"maxclass" : "newobj",
					"numinlets" : 0,
					"numoutlets" : 1,
					"outlettype" : [ "" ],
					"patching_rect" : [ 173.5, 10.5, 123.0, 22.0 ],
					"text" : "receive bose-ar-input"
				}

			}
, 			{
				"box" : 				{
					"format" : 6,
					"id" : "obj-757",
					"ignoreclick" : 1,
					"maxclass" : "flonum",
					"numinlets" : 1,
					"numoutlets" : 2,
					"outlettype" : [ "", "bang" ],
					"parameter_enable" : 0,
					"patching_rect" : [ 1059.875, 859.333337187767029, 105.0, 22.0 ]
				}

			}
, 			{
				"box" : 				{
					"id" : "obj-758",
					"ignoreclick" : 1,
					"maxclass" : "button",
					"numinlets" : 1,
					"numoutlets" : 1,
					"outlettype" : [ "bang" ],
					"parameter_enable" : 0,
					"patching_rect" : [ 1099.625, 900.333337187767029, 24.0, 24.0 ]
				}

			}
, 			{
				"box" : 				{
					"id" : "obj-759",
					"maxclass" : "comment",
					"numinlets" : 0,
					"numoutlets" : 0,
					"patching_rect" : [ 1060.875, 833.333337187767029, 103.0, 20.0 ],
					"suppressinlet" : 1,
					"text" : "timestamp (ms)"
				}

			}
, 			{
				"box" : 				{
					"format" : 6,
					"id" : "obj-754",
					"ignoreclick" : 1,
					"maxclass" : "flonum",
					"numinlets" : 1,
					"numoutlets" : 2,
					"outlettype" : [ "", "bang" ],
					"parameter_enable" : 0,
					"patching_rect" : [ 906.875, 861.333337187767029, 105.0, 22.0 ]
				}

			}
, 			{
				"box" : 				{
					"id" : "obj-755",
					"ignoreclick" : 1,
					"maxclass" : "button",
					"numinlets" : 1,
					"numoutlets" : 1,
					"outlettype" : [ "bang" ],
					"parameter_enable" : 0,
					"patching_rect" : [ 946.625, 902.333337187767029, 24.0, 24.0 ]
				}

			}
, 			{
				"box" : 				{
					"id" : "obj-756",
					"maxclass" : "comment",
					"numinlets" : 0,
					"numoutlets" : 0,
					"patching_rect" : [ 907.875, 835.333337187767029, 103.0, 20.0 ],
					"suppressinlet" : 1,
					"text" : "timestamp (ms)"
				}

			}
, 			{
				"box" : 				{
					"format" : 6,
					"id" : "obj-732",
					"ignoreclick" : 1,
					"maxclass" : "flonum",
					"numinlets" : 1,
					"numoutlets" : 2,
					"outlettype" : [ "", "bang" ],
					"parameter_enable" : 0,
					"patching_rect" : [ 579.625, 1318.000010132789612, 106.0, 22.0 ]
				}

			}
, 			{
				"box" : 				{
					"id" : "obj-733",
					"maxclass" : "comment",
					"numinlets" : 0,
					"numoutlets" : 0,
					"patching_rect" : [ 579.625, 1294.000010132789612, 106.0, 20.0 ],
					"suppressinlet" : 1,
					"text" : "roll",
					"textjustification" : 1
				}

			}
, 			{
				"box" : 				{
					"format" : 6,
					"id" : "obj-734",
					"ignoreclick" : 1,
					"maxclass" : "flonum",
					"numinlets" : 1,
					"numoutlets" : 2,
					"outlettype" : [ "", "bang" ],
					"parameter_enable" : 0,
					"patching_rect" : [ 579.625, 1251.000008583068848, 106.0, 22.0 ]
				}

			}
, 			{
				"box" : 				{
					"id" : "obj-735",
					"maxclass" : "comment",
					"numinlets" : 0,
					"numoutlets" : 0,
					"patching_rect" : [ 579.625, 1227.000008583068848, 106.0, 20.0 ],
					"suppressinlet" : 1,
					"text" : "pitch",
					"textjustification" : 1
				}

			}
, 			{
				"box" : 				{
					"format" : 6,
					"id" : "obj-736",
					"ignoreclick" : 1,
					"maxclass" : "flonum",
					"numinlets" : 1,
					"numoutlets" : 2,
					"outlettype" : [ "", "bang" ],
					"parameter_enable" : 0,
					"patching_rect" : [ 579.625, 1185.333340406417847, 106.0, 22.0 ]
				}

			}
, 			{
				"box" : 				{
					"id" : "obj-737",
					"maxclass" : "comment",
					"numinlets" : 0,
					"numoutlets" : 0,
					"patching_rect" : [ 579.625, 1161.333340406417847, 106.0, 20.0 ],
					"suppressinlet" : 1,
					"text" : "yaw",
					"textjustification" : 1
				}

			}
, 			{
				"box" : 				{
					"format" : 6,
					"id" : "obj-738",
					"ignoreclick" : 1,
					"maxclass" : "flonum",
					"numinlets" : 1,
					"numoutlets" : 2,
					"outlettype" : [ "", "bang" ],
					"parameter_enable" : 0,
					"patching_rect" : [ 579.625, 1114.333338737487793, 106.0, 22.0 ]
				}

			}
, 			{
				"box" : 				{
					"id" : "obj-739",
					"maxclass" : "comment",
					"numinlets" : 0,
					"numoutlets" : 0,
					"patching_rect" : [ 579.625, 1090.333338737487793, 106.0, 20.0 ],
					"suppressinlet" : 1,
					"text" : "w",
					"textjustification" : 1
				}

			}
, 			{
				"box" : 				{
					"format" : 6,
					"id" : "obj-740",
					"ignoreclick" : 1,
					"maxclass" : "flonum",
					"numinlets" : 1,
					"numoutlets" : 2,
					"outlettype" : [ "", "bang" ],
					"parameter_enable" : 0,
					"patching_rect" : [ 579.625, 1047.333337187767029, 106.0, 22.0 ]
				}

			}
, 			{
				"box" : 				{
					"id" : "obj-741",
					"maxclass" : "comment",
					"numinlets" : 0,
					"numoutlets" : 0,
					"patching_rect" : [ 579.625, 1023.333337187767029, 106.0, 20.0 ],
					"suppressinlet" : 1,
					"text" : "z",
					"textjustification" : 1
				}

			}
, 			{
				"box" : 				{
					"format" : 6,
					"id" : "obj-742",
					"ignoreclick" : 1,
					"maxclass" : "flonum",
					"numinlets" : 1,
					"numoutlets" : 2,
					"outlettype" : [ "", "bang" ],
					"parameter_enable" : 0,
					"patching_rect" : [ 579.625, 986.333337187767029, 106.0, 22.0 ]
				}

			}
, 			{
				"box" : 				{
					"id" : "obj-743",
					"maxclass" : "comment",
					"numinlets" : 0,
					"numoutlets" : 0,
					"patching_rect" : [ 579.625, 962.333337187767029, 106.0, 20.0 ],
					"suppressinlet" : 1,
					"text" : "y",
					"textjustification" : 1
				}

			}
, 			{
				"box" : 				{
					"id" : "obj-744",
					"linecount" : 2,
					"maxclass" : "newobj",
					"numinlets" : 1,
					"numoutlets" : 8,
					"outlettype" : [ "float", "float", "float", "float", "float", "float", "float", "float" ],
					"patching_rect" : [ 579.625, 793.333337187767029, 106.0, 36.0 ],
					"text" : "unpack 0. 0. 0. 0. 0. 0. 0. 0."
				}

			}
, 			{
				"box" : 				{
					"format" : 6,
					"id" : "obj-745",
					"ignoreclick" : 1,
					"maxclass" : "flonum",
					"numinlets" : 1,
					"numoutlets" : 2,
					"outlettype" : [ "", "bang" ],
					"parameter_enable" : 0,
					"patching_rect" : [ 579.625, 859.333337187767029, 106.0, 22.0 ]
				}

			}
, 			{
				"box" : 				{
					"id" : "obj-746",
					"maxclass" : "comment",
					"numinlets" : 0,
					"numoutlets" : 0,
					"patching_rect" : [ 579.625, 835.333337187767029, 106.0, 20.0 ],
					"suppressinlet" : 1,
					"text" : "timestamp (ms)",
					"textjustification" : 1
				}

			}
, 			{
				"box" : 				{
					"format" : 6,
					"id" : "obj-747",
					"ignoreclick" : 1,
					"maxclass" : "flonum",
					"numinlets" : 1,
					"numoutlets" : 2,
					"outlettype" : [ "", "bang" ],
					"parameter_enable" : 0,
					"patching_rect" : [ 579.625, 922.333337187767029, 106.0, 22.0 ]
				}

			}
, 			{
				"box" : 				{
					"id" : "obj-748",
					"maxclass" : "comment",
					"numinlets" : 0,
					"numoutlets" : 0,
					"patching_rect" : [ 579.625, 898.333337187767029, 106.0, 20.0 ],
					"suppressinlet" : 1,
					"text" : "x",
					"textjustification" : 1
				}

			}
, 			{
				"box" : 				{
					"format" : 6,
					"id" : "obj-729",
					"ignoreclick" : 1,
					"maxclass" : "flonum",
					"numinlets" : 1,
					"numoutlets" : 2,
					"outlettype" : [ "", "bang" ],
					"parameter_enable" : 0,
					"patching_rect" : [ 407.375, 1318.000010132789612, 106.0, 22.0 ]
				}

			}
, 			{
				"box" : 				{
					"id" : "obj-730",
					"maxclass" : "comment",
					"numinlets" : 0,
					"numoutlets" : 0,
					"patching_rect" : [ 407.375, 1294.000010132789612, 106.0, 20.0 ],
					"suppressinlet" : 1,
					"text" : "roll",
					"textjustification" : 1
				}

			}
, 			{
				"box" : 				{
					"format" : 6,
					"id" : "obj-727",
					"ignoreclick" : 1,
					"maxclass" : "flonum",
					"numinlets" : 1,
					"numoutlets" : 2,
					"outlettype" : [ "", "bang" ],
					"parameter_enable" : 0,
					"patching_rect" : [ 407.375, 1251.000008583068848, 106.0, 22.0 ]
				}

			}
, 			{
				"box" : 				{
					"id" : "obj-728",
					"maxclass" : "comment",
					"numinlets" : 0,
					"numoutlets" : 0,
					"patching_rect" : [ 407.375, 1227.000008583068848, 106.0, 20.0 ],
					"suppressinlet" : 1,
					"text" : "pitch",
					"textjustification" : 1
				}

			}
, 			{
				"box" : 				{
					"format" : 6,
					"id" : "obj-725",
					"ignoreclick" : 1,
					"maxclass" : "flonum",
					"numinlets" : 1,
					"numoutlets" : 2,
					"outlettype" : [ "", "bang" ],
					"parameter_enable" : 0,
					"patching_rect" : [ 407.375, 1185.333340406417847, 106.0, 22.0 ]
				}

			}
, 			{
				"box" : 				{
					"id" : "obj-726",
					"maxclass" : "comment",
					"numinlets" : 0,
					"numoutlets" : 0,
					"patching_rect" : [ 407.375, 1161.333340406417847, 106.0, 20.0 ],
					"suppressinlet" : 1,
					"text" : "yaw",
					"textjustification" : 1
				}

			}
, 			{
				"box" : 				{
					"format" : 6,
					"id" : "obj-723",
					"ignoreclick" : 1,
					"maxclass" : "flonum",
					"numinlets" : 1,
					"numoutlets" : 2,
					"outlettype" : [ "", "bang" ],
					"parameter_enable" : 0,
					"patching_rect" : [ 407.375, 1114.333338737487793, 106.0, 22.0 ]
				}

			}
, 			{
				"box" : 				{
					"id" : "obj-724",
					"maxclass" : "comment",
					"numinlets" : 0,
					"numoutlets" : 0,
					"patching_rect" : [ 407.375, 1090.333338737487793, 106.0, 20.0 ],
					"suppressinlet" : 1,
					"text" : "w",
					"textjustification" : 1
				}

			}
, 			{
				"box" : 				{
					"format" : 6,
					"id" : "obj-714",
					"ignoreclick" : 1,
					"maxclass" : "flonum",
					"numinlets" : 1,
					"numoutlets" : 2,
					"outlettype" : [ "", "bang" ],
					"parameter_enable" : 0,
					"patching_rect" : [ 407.375, 1047.333337187767029, 106.0, 22.0 ]
				}

			}
, 			{
				"box" : 				{
					"id" : "obj-715",
					"maxclass" : "comment",
					"numinlets" : 0,
					"numoutlets" : 0,
					"patching_rect" : [ 407.375, 1023.333337187767029, 106.0, 20.0 ],
					"suppressinlet" : 1,
					"text" : "z",
					"textjustification" : 1
				}

			}
, 			{
				"box" : 				{
					"format" : 6,
					"id" : "obj-716",
					"ignoreclick" : 1,
					"maxclass" : "flonum",
					"numinlets" : 1,
					"numoutlets" : 2,
					"outlettype" : [ "", "bang" ],
					"parameter_enable" : 0,
					"patching_rect" : [ 407.375, 986.333337187767029, 106.0, 22.0 ]
				}

			}
, 			{
				"box" : 				{
					"id" : "obj-717",
					"maxclass" : "comment",
					"numinlets" : 0,
					"numoutlets" : 0,
					"patching_rect" : [ 407.375, 962.333337187767029, 106.0, 20.0 ],
					"suppressinlet" : 1,
					"text" : "y",
					"textjustification" : 1
				}

			}
, 			{
				"box" : 				{
					"id" : "obj-718",
					"linecount" : 2,
					"maxclass" : "newobj",
					"numinlets" : 1,
					"numoutlets" : 8,
					"outlettype" : [ "float", "float", "float", "float", "float", "float", "float", "float" ],
					"patching_rect" : [ 407.375, 793.333337187767029, 106.0, 36.0 ],
					"text" : "unpack 0. 0. 0. 0. 0. 0. 0. 0."
				}

			}
, 			{
				"box" : 				{
					"format" : 6,
					"id" : "obj-719",
					"ignoreclick" : 1,
					"maxclass" : "flonum",
					"numinlets" : 1,
					"numoutlets" : 2,
					"outlettype" : [ "", "bang" ],
					"parameter_enable" : 0,
					"patching_rect" : [ 407.375, 859.333337187767029, 106.0, 22.0 ]
				}

			}
, 			{
				"box" : 				{
					"id" : "obj-720",
					"maxclass" : "comment",
					"numinlets" : 0,
					"numoutlets" : 0,
					"patching_rect" : [ 407.375, 835.333337187767029, 106.0, 20.0 ],
					"suppressinlet" : 1,
					"text" : "timestamp (ms)",
					"textjustification" : 1
				}

			}
, 			{
				"box" : 				{
					"format" : 6,
					"id" : "obj-721",
					"ignoreclick" : 1,
					"maxclass" : "flonum",
					"numinlets" : 1,
					"numoutlets" : 2,
					"outlettype" : [ "", "bang" ],
					"parameter_enable" : 0,
					"patching_rect" : [ 407.375, 922.333337187767029, 106.0, 22.0 ]
				}

			}
, 			{
				"box" : 				{
					"id" : "obj-722",
					"maxclass" : "comment",
					"numinlets" : 0,
					"numoutlets" : 0,
					"patching_rect" : [ 407.375, 898.333337187767029, 106.0, 20.0 ],
					"suppressinlet" : 1,
					"text" : "x",
					"textjustification" : 1
				}

			}
, 			{
				"box" : 				{
					"format" : 6,
					"id" : "obj-705",
					"ignoreclick" : 1,
					"maxclass" : "flonum",
					"numinlets" : 1,
					"numoutlets" : 2,
					"outlettype" : [ "", "bang" ],
					"parameter_enable" : 0,
					"patching_rect" : [ 227.375, 1047.333337187767029, 106.0, 22.0 ]
				}

			}
, 			{
				"box" : 				{
					"id" : "obj-706",
					"maxclass" : "comment",
					"numinlets" : 0,
					"numoutlets" : 0,
					"patching_rect" : [ 227.375, 1023.333337187767029, 106.0, 20.0 ],
					"suppressinlet" : 1,
					"text" : "z",
					"textjustification" : 1
				}

			}
, 			{
				"box" : 				{
					"format" : 6,
					"id" : "obj-707",
					"ignoreclick" : 1,
					"maxclass" : "flonum",
					"numinlets" : 1,
					"numoutlets" : 2,
					"outlettype" : [ "", "bang" ],
					"parameter_enable" : 0,
					"patching_rect" : [ 227.375, 986.333337187767029, 106.0, 22.0 ]
				}

			}
, 			{
				"box" : 				{
					"id" : "obj-708",
					"maxclass" : "comment",
					"numinlets" : 0,
					"numoutlets" : 0,
					"patching_rect" : [ 227.375, 962.333337187767029, 106.0, 20.0 ],
					"suppressinlet" : 1,
					"text" : "y",
					"textjustification" : 1
				}

			}
, 			{
				"box" : 				{
					"id" : "obj-709",
					"maxclass" : "newobj",
					"numinlets" : 1,
					"numoutlets" : 4,
					"outlettype" : [ "float", "float", "float", "float" ],
					"patching_rect" : [ 227.375, 793.333337187767029, 106.0, 22.0 ],
					"text" : "unpack 0. 0. 0. 0."
				}

			}
, 			{
				"box" : 				{
					"format" : 6,
					"id" : "obj-710",
					"ignoreclick" : 1,
					"maxclass" : "flonum",
					"numinlets" : 1,
					"numoutlets" : 2,
					"outlettype" : [ "", "bang" ],
					"parameter_enable" : 0,
					"patching_rect" : [ 227.375, 859.333337187767029, 106.0, 22.0 ]
				}

			}
, 			{
				"box" : 				{
					"id" : "obj-711",
					"maxclass" : "comment",
					"numinlets" : 0,
					"numoutlets" : 0,
					"patching_rect" : [ 227.375, 835.333337187767029, 106.0, 20.0 ],
					"suppressinlet" : 1,
					"text" : "timestamp (ms)",
					"textjustification" : 1
				}

			}
, 			{
				"box" : 				{
					"format" : 6,
					"id" : "obj-712",
					"ignoreclick" : 1,
					"maxclass" : "flonum",
					"numinlets" : 1,
					"numoutlets" : 2,
					"outlettype" : [ "", "bang" ],
					"parameter_enable" : 0,
					"patching_rect" : [ 227.375, 922.333337187767029, 106.0, 22.0 ]
				}

			}
, 			{
				"box" : 				{
					"id" : "obj-713",
					"maxclass" : "comment",
					"numinlets" : 0,
					"numoutlets" : 0,
					"patching_rect" : [ 227.375, 898.333337187767029, 106.0, 20.0 ],
					"suppressinlet" : 1,
					"text" : "x",
					"textjustification" : 1
				}

			}
, 			{
				"box" : 				{
					"format" : 6,
					"id" : "obj-703",
					"ignoreclick" : 1,
					"maxclass" : "flonum",
					"numinlets" : 1,
					"numoutlets" : 2,
					"outlettype" : [ "", "bang" ],
					"parameter_enable" : 0,
					"patching_rect" : [ 17.875, 1047.333337187767029, 106.0, 22.0 ]
				}

			}
, 			{
				"box" : 				{
					"id" : "obj-704",
					"maxclass" : "comment",
					"numinlets" : 0,
					"numoutlets" : 0,
					"patching_rect" : [ 17.875, 1023.333337187767029, 106.0, 20.0 ],
					"suppressinlet" : 1,
					"text" : "z",
					"textjustification" : 1
				}

			}
, 			{
				"box" : 				{
					"format" : 6,
					"id" : "obj-701",
					"ignoreclick" : 1,
					"maxclass" : "flonum",
					"numinlets" : 1,
					"numoutlets" : 2,
					"outlettype" : [ "", "bang" ],
					"parameter_enable" : 0,
					"patching_rect" : [ 17.875, 986.333337187767029, 106.0, 22.0 ]
				}

			}
, 			{
				"box" : 				{
					"id" : "obj-702",
					"maxclass" : "comment",
					"numinlets" : 0,
					"numoutlets" : 0,
					"patching_rect" : [ 17.875, 962.333337187767029, 106.0, 20.0 ],
					"suppressinlet" : 1,
					"text" : "y",
					"textjustification" : 1
				}

			}
, 			{
				"box" : 				{
					"id" : "obj-36",
					"linecount" : 2,
					"maxclass" : "message",
					"numinlets" : 2,
					"numoutlets" : 1,
					"outlettype" : [ "" ],
					"patching_rect" : [ 803.00000274181366, 42.49999988079071, 129.0, 36.0 ],
					"text" : ";\r\nmax launchbrowser $1"
				}

			}
, 			{
				"box" : 				{
					"id" : "obj-21",
					"maxclass" : "message",
					"numinlets" : 2,
					"numoutlets" : 1,
					"outlettype" : [ "" ],
					"patching_rect" : [ 803.00000274181366, 11.49999988079071, 116.0, 22.0 ],
					"text" : "http://localhost:3000"
				}

			}
, 			{
				"box" : 				{
					"id" : "obj-700",
					"maxclass" : "button",
					"numinlets" : 1,
					"numoutlets" : 1,
					"outlettype" : [ "bang" ],
					"parameter_enable" : 0,
					"patching_rect" : [ 769.62500274181366, 11.49999988079071, 24.0, 24.0 ]
				}

			}
, 			{
				"box" : 				{
					"id" : "obj-695",
					"linecount" : 2,
					"maxclass" : "message",
					"numinlets" : 2,
					"numoutlets" : 1,
					"outlettype" : [ "" ],
					"patching_rect" : [ 428.5, 23.5, 213.0, 36.0 ],
					"text" : "0 sensorData accelerometer 57201 -0.007 -0.969 0"
				}

			}
, 			{
				"box" : 				{
					"id" : "obj-26",
					"maxclass" : "newobj",
					"numinlets" : 1,
					"numoutlets" : 1,
					"outlettype" : [ "bang" ],
					"patching_rect" : [ 16.5, 10.5, 67.0, 22.0 ],
					"text" : "loadbang"
				}

			}
, 			{
				"box" : 				{
					"id" : "obj-10",
					"maxclass" : "message",
					"numinlets" : 2,
					"numoutlets" : 1,
					"outlettype" : [ "" ],
					"patching_rect" : [ 94.5, 10.5, 71.0, 22.0 ],
					"text" : "script start"
				}

			}
, 			{
				"box" : 				{
					"id" : "obj-8",
					"maxclass" : "newobj",
					"numinlets" : 1,
					"numoutlets" : 2,
					"outlettype" : [ "", "" ],
					"patching_rect" : [ 94.5, 37.5, 111.0, 22.0 ],
					"saved_object_attributes" : 					{
						"autostart" : 0,
						"defer" : 0,
						"node_bin_path" : "",
						"npm_bin_path" : "",
						"watch" : 0
					}
,
					"text" : "node.script app.js",
					"varname" : "nodeScript"
				}

			}
, 			{
				"box" : 				{
					"id" : "obj-665",
					"maxclass" : "newobj",
					"numinlets" : 1,
					"numoutlets" : 4,
					"outlettype" : [ "float", "float", "float", "float" ],
					"patching_rect" : [ 17.875, 793.333337187767029, 106.0, 22.0 ],
					"text" : "unpack 0. 0. 0. 0."
				}

			}
, 			{
				"box" : 				{
					"format" : 6,
					"id" : "obj-587",
					"ignoreclick" : 1,
					"maxclass" : "flonum",
					"numinlets" : 1,
					"numoutlets" : 2,
					"outlettype" : [ "", "bang" ],
					"parameter_enable" : 0,
					"patching_rect" : [ 17.875, 859.333337187767029, 106.0, 22.0 ]
				}

			}
, 			{
				"box" : 				{
					"id" : "obj-588",
					"maxclass" : "comment",
					"numinlets" : 0,
					"numoutlets" : 0,
					"patching_rect" : [ 17.875, 835.333337187767029, 106.0, 20.0 ],
					"suppressinlet" : 1,
					"text" : "timestamp (ms)",
					"textjustification" : 1
				}

			}
, 			{
				"box" : 				{
					"format" : 6,
					"id" : "obj-558",
					"ignoreclick" : 1,
					"maxclass" : "flonum",
					"numinlets" : 1,
					"numoutlets" : 2,
					"outlettype" : [ "", "bang" ],
					"parameter_enable" : 0,
					"patching_rect" : [ 17.875, 922.333337187767029, 106.0, 22.0 ]
				}

			}
, 			{
				"box" : 				{
					"format" : 6,
					"id" : "obj-551",
					"ignoreclick" : 1,
					"maxclass" : "flonum",
					"numinlets" : 1,
					"numoutlets" : 2,
					"outlettype" : [ "", "bang" ],
					"parameter_enable" : 0,
					"patching_rect" : [ 759.875, 861.333337187767029, 105.0, 22.0 ]
				}

			}
, 			{
				"box" : 				{
					"id" : "obj-548",
					"ignoreclick" : 1,
					"maxclass" : "button",
					"numinlets" : 1,
					"numoutlets" : 1,
					"outlettype" : [ "bang" ],
					"parameter_enable" : 0,
					"patching_rect" : [ 799.625, 902.333337187767029, 24.0, 24.0 ]
				}

			}
, 			{
				"box" : 				{
					"id" : "obj-543",
					"maxclass" : "comment",
					"numinlets" : 0,
					"numoutlets" : 0,
					"patching_rect" : [ 760.875, 835.333337187767029, 103.0, 20.0 ],
					"suppressinlet" : 1,
					"text" : "timestamp (ms)"
				}

			}
, 			{
				"box" : 				{
					"id" : "obj-539",
					"maxclass" : "comment",
					"numinlets" : 0,
					"numoutlets" : 0,
					"patching_rect" : [ 17.875, 898.333337187767029, 106.0, 20.0 ],
					"suppressinlet" : 1,
					"text" : "x",
					"textjustification" : 1
				}

			}
, 			{
				"box" : 				{
					"id" : "obj-530",
					"maxclass" : "newobj",
					"numinlets" : 1,
					"numoutlets" : 0,
					"patching_rect" : [ 548.0, 589.0, 119.25, 22.0 ],
					"text" : "send bose-ar-input",
					"textjustification" : 1
				}

			}
, 			{
				"box" : 				{
					"id" : "obj-526",
					"maxclass" : "message",
					"numinlets" : 2,
					"numoutlets" : 1,
					"outlettype" : [ "" ],
					"patching_rect" : [ 1045.0, 464.0, 50.0, 22.0 ],
					"text" : "enable"
				}

			}
, 			{
				"box" : 				{
					"id" : "obj-521",
					"maxclass" : "message",
					"numinlets" : 2,
					"numoutlets" : 1,
					"outlettype" : [ "" ],
					"patching_rect" : [ 1045.0, 524.0, 134.0, 22.0 ],
					"text" : "$1-gesture headShake"
				}

			}
, 			{
				"box" : 				{
					"id" : "obj-522",
					"maxclass" : "newobj",
					"numinlets" : 1,
					"numoutlets" : 1,
					"outlettype" : [ "" ],
					"patching_rect" : [ 1045.0, 496.0, 134.0, 22.0 ],
					"text" : "pack enable",
					"textjustification" : 1
				}

			}
, 			{
				"box" : 				{
					"id" : "obj-523",
					"maxclass" : "toggle",
					"numinlets" : 1,
					"numoutlets" : 1,
					"outlettype" : [ "int" ],
					"parameter_enable" : 0,
					"patching_rect" : [ 1096.75, 401.0, 24.0, 24.0 ]
				}

			}
, 			{
				"box" : 				{
					"id" : "obj-524",
					"maxclass" : "newobj",
					"numinlets" : 2,
					"numoutlets" : 2,
					"outlettype" : [ "bang", "" ],
					"patching_rect" : [ 1045.0, 435.0, 134.0, 22.0 ],
					"text" : "select 1",
					"textjustification" : 1
				}

			}
, 			{
				"box" : 				{
					"id" : "obj-525",
					"maxclass" : "message",
					"numinlets" : 2,
					"numoutlets" : 1,
					"outlettype" : [ "" ],
					"patching_rect" : [ 1129.0, 464.0, 50.0, 22.0 ],
					"text" : "disable"
				}

			}
, 			{
				"box" : 				{
					"id" : "obj-514",
					"maxclass" : "message",
					"numinlets" : 2,
					"numoutlets" : 1,
					"outlettype" : [ "" ],
					"patching_rect" : [ 895.0, 464.0, 50.0, 22.0 ],
					"text" : "enable"
				}

			}
, 			{
				"box" : 				{
					"id" : "obj-515",
					"maxclass" : "message",
					"numinlets" : 2,
					"numoutlets" : 1,
					"outlettype" : [ "" ],
					"patching_rect" : [ 895.0, 524.0, 128.0, 22.0 ],
					"text" : "$1-gesture headNod",
					"textjustification" : 1
				}

			}
, 			{
				"box" : 				{
					"id" : "obj-516",
					"maxclass" : "newobj",
					"numinlets" : 1,
					"numoutlets" : 1,
					"outlettype" : [ "" ],
					"patching_rect" : [ 895.0, 496.0, 128.0, 22.0 ],
					"text" : "pack enable",
					"textjustification" : 1
				}

			}
, 			{
				"box" : 				{
					"id" : "obj-517",
					"maxclass" : "toggle",
					"numinlets" : 1,
					"numoutlets" : 1,
					"outlettype" : [ "int" ],
					"parameter_enable" : 0,
					"patching_rect" : [ 946.75, 401.0, 24.0, 24.0 ]
				}

			}
, 			{
				"box" : 				{
					"id" : "obj-518",
					"maxclass" : "newobj",
					"numinlets" : 2,
					"numoutlets" : 2,
					"outlettype" : [ "bang", "" ],
					"patching_rect" : [ 895.0, 435.0, 127.5, 22.0 ],
					"text" : "select 1",
					"textjustification" : 1
				}

			}
, 			{
				"box" : 				{
					"id" : "obj-519",
					"maxclass" : "message",
					"numinlets" : 2,
					"numoutlets" : 1,
					"outlettype" : [ "" ],
					"patching_rect" : [ 973.0, 464.0, 50.0, 22.0 ],
					"text" : "disable"
				}

			}
, 			{
				"box" : 				{
					"id" : "obj-503",
					"maxclass" : "message",
					"numinlets" : 2,
					"numoutlets" : 1,
					"outlettype" : [ "" ],
					"patching_rect" : [ 748.0, 464.0, 50.0, 22.0 ],
					"text" : "enable"
				}

			}
, 			{
				"box" : 				{
					"id" : "obj-504",
					"maxclass" : "message",
					"numinlets" : 2,
					"numoutlets" : 1,
					"outlettype" : [ "" ],
					"patching_rect" : [ 748.0, 524.0, 128.0, 22.0 ],
					"text" : "$1-gesture doubleTap"
				}

			}
, 			{
				"box" : 				{
					"id" : "obj-505",
					"maxclass" : "newobj",
					"numinlets" : 1,
					"numoutlets" : 1,
					"outlettype" : [ "" ],
					"patching_rect" : [ 748.0, 496.0, 128.0, 22.0 ],
					"text" : "pack enable",
					"textjustification" : 1
				}

			}
, 			{
				"box" : 				{
					"id" : "obj-506",
					"maxclass" : "toggle",
					"numinlets" : 1,
					"numoutlets" : 1,
					"outlettype" : [ "int" ],
					"parameter_enable" : 0,
					"patching_rect" : [ 799.75, 401.0, 24.0, 24.0 ]
				}

			}
, 			{
				"box" : 				{
					"id" : "obj-507",
					"maxclass" : "newobj",
					"numinlets" : 2,
					"numoutlets" : 2,
					"outlettype" : [ "bang", "" ],
					"patching_rect" : [ 748.0, 435.0, 127.5, 22.0 ],
					"text" : "select 1",
					"textjustification" : 1
				}

			}
, 			{
				"box" : 				{
					"id" : "obj-508",
					"maxclass" : "message",
					"numinlets" : 2,
					"numoutlets" : 1,
					"outlettype" : [ "" ],
					"patching_rect" : [ 826.0, 464.0, 50.0, 22.0 ],
					"text" : "disable"
				}

			}
, 			{
				"box" : 				{
					"id" : "obj-494",
					"maxclass" : "newobj",
					"numinlets" : 1,
					"numoutlets" : 1,
					"outlettype" : [ "" ],
					"patching_rect" : [ 548.0, 563.0, 119.25, 22.0 ],
					"text" : "append 0",
					"textjustification" : 1
				}

			}
, 			{
				"box" : 				{
					"id" : "obj-493",
					"maxclass" : "comment",
					"numinlets" : 1,
					"numoutlets" : 0,
					"patching_rect" : [ 654.25, 407.0, 58.0, 20.0 ],
					"text" : "rate (ms)",
					"textjustification" : 0
				}

			}
, 			{
				"box" : 				{
					"id" : "obj-492",
					"maxclass" : "comment",
					"numinlets" : 1,
					"numoutlets" : 0,
					"patching_rect" : [ 469.375, 407.0, 58.0, 20.0 ],
					"text" : "rate (ms)",
					"textjustification" : 0
				}

			}
, 			{
				"box" : 				{
					"id" : "obj-491",
					"maxclass" : "comment",
					"numinlets" : 1,
					"numoutlets" : 0,
					"patching_rect" : [ 295.25, 403.0, 58.0, 20.0 ],
					"text" : "rate (ms)",
					"textjustification" : 0
				}

			}
, 			{
				"box" : 				{
					"id" : "obj-490",
					"items" : [ 20, ",", 40, ",", 80, ",", 160, ",", 320 ],
					"maxclass" : "umenu",
					"numinlets" : 1,
					"numoutlets" : 3,
					"outlettype" : [ "int", "", "" ],
					"parameter_enable" : 1,
					"patching_rect" : [ 608.25, 403.0, 48.0, 22.0 ],
					"saved_attribute_attributes" : 					{
						"valueof" : 						{
							"parameter_shortname" : "umenu",
							"parameter_enum" : [ "20", "40", "80", "160", "320" ],
							"parameter_type" : 2,
							"parameter_longname" : "umenu[7]",
							"parameter_mmax" : 4
						}

					}
,
					"varname" : "umenu[8]"
				}

			}
, 			{
				"box" : 				{
					"id" : "obj-489",
					"items" : [ 20, ",", 40, ",", 80, ",", 160, ",", 320 ],
					"maxclass" : "umenu",
					"numinlets" : 1,
					"numoutlets" : 3,
					"outlettype" : [ "int", "", "" ],
					"parameter_enable" : 1,
					"patching_rect" : [ 421.0, 403.0, 48.0, 22.0 ],
					"saved_attribute_attributes" : 					{
						"valueof" : 						{
							"parameter_shortname" : "umenu",
							"parameter_enum" : [ "20", "40", "80", "160", "320" ],
							"parameter_type" : 2,
							"parameter_longname" : "umenu[11]",
							"parameter_mmax" : 4
						}

					}
,
					"varname" : "umenu[7]"
				}

			}
, 			{
				"box" : 				{
					"id" : "obj-488",
					"items" : [ 20, ",", 40, ",", 80, ",", 160, ",", 320 ],
					"maxclass" : "umenu",
					"numinlets" : 1,
					"numoutlets" : 3,
					"outlettype" : [ "int", "", "" ],
					"parameter_enable" : 1,
					"patching_rect" : [ 246.5, 401.0, 48.0, 22.0 ],
					"saved_attribute_attributes" : 					{
						"valueof" : 						{
							"parameter_shortname" : "umenu",
							"parameter_enum" : [ "20", "40", "80", "160", "320" ],
							"parameter_type" : 2,
							"parameter_longname" : "umenu[10]",
							"parameter_mmax" : 4
						}

					}
,
					"varname" : "umenu[10]"
				}

			}
, 			{
				"box" : 				{
					"id" : "obj-482",
					"maxclass" : "comment",
					"numinlets" : 1,
					"numoutlets" : 0,
					"patching_rect" : [ 112.625, 407.0, 58.0, 20.0 ],
					"text" : "rate (ms)",
					"textjustification" : 0
				}

			}
, 			{
				"box" : 				{
					"id" : "obj-481",
					"maxclass" : "message",
					"numinlets" : 2,
					"numoutlets" : 1,
					"outlettype" : [ "" ],
					"patching_rect" : [ 560.0, 464.0, 50.0, 22.0 ],
					"text" : "enable"
				}

			}
, 			{
				"box" : 				{
					"id" : "obj-474",
					"maxclass" : "message",
					"numinlets" : 2,
					"numoutlets" : 1,
					"outlettype" : [ "" ],
					"patching_rect" : [ 560.0, 524.0, 158.0, 22.0 ],
					"text" : "$1-sensor gameRotation $2"
				}

			}
, 			{
				"box" : 				{
					"id" : "obj-476",
					"maxclass" : "newobj",
					"numinlets" : 2,
					"numoutlets" : 1,
					"outlettype" : [ "" ],
					"patching_rect" : [ 560.0, 496.0, 158.0, 22.0 ],
					"text" : "pack enable 20",
					"textjustification" : 1
				}

			}
, 			{
				"box" : 				{
					"id" : "obj-477",
					"maxclass" : "toggle",
					"numinlets" : 1,
					"numoutlets" : 1,
					"outlettype" : [ "int" ],
					"parameter_enable" : 0,
					"patching_rect" : [ 560.0, 403.0, 24.0, 24.0 ]
				}

			}
, 			{
				"box" : 				{
					"id" : "obj-478",
					"maxclass" : "newobj",
					"numinlets" : 2,
					"numoutlets" : 2,
					"outlettype" : [ "bang", "" ],
					"patching_rect" : [ 560.0, 435.0, 103.5, 22.0 ],
					"text" : "select 1",
					"textjustification" : 1
				}

			}
, 			{
				"box" : 				{
					"id" : "obj-479",
					"maxclass" : "message",
					"numinlets" : 2,
					"numoutlets" : 1,
					"outlettype" : [ "" ],
					"patching_rect" : [ 614.0, 464.0, 50.0, 22.0 ],
					"text" : "disable"
				}

			}
, 			{
				"box" : 				{
					"id" : "obj-466",
					"maxclass" : "message",
					"numinlets" : 2,
					"numoutlets" : 1,
					"outlettype" : [ "" ],
					"patching_rect" : [ 390.0, 524.0, 140.0, 22.0 ],
					"text" : "$1-sensor rotation $2"
				}

			}
, 			{
				"box" : 				{
					"id" : "obj-468",
					"maxclass" : "newobj",
					"numinlets" : 2,
					"numoutlets" : 1,
					"outlettype" : [ "" ],
					"patching_rect" : [ 390.0, 496.0, 140.0, 22.0 ],
					"text" : "pack enable 20",
					"textjustification" : 1
				}

			}
, 			{
				"box" : 				{
					"id" : "obj-469",
					"maxclass" : "toggle",
					"numinlets" : 1,
					"numoutlets" : 1,
					"outlettype" : [ "int" ],
					"parameter_enable" : 0,
					"patching_rect" : [ 390.0, 403.0, 24.0, 24.0 ]
				}

			}
, 			{
				"box" : 				{
					"id" : "obj-470",
					"maxclass" : "newobj",
					"numinlets" : 2,
					"numoutlets" : 2,
					"outlettype" : [ "bang", "" ],
					"patching_rect" : [ 404.75, 435.0, 80.5, 22.0 ],
					"text" : "select 1",
					"textjustification" : 1
				}

			}
, 			{
				"box" : 				{
					"id" : "obj-471",
					"maxclass" : "message",
					"numinlets" : 2,
					"numoutlets" : 1,
					"outlettype" : [ "" ],
					"patching_rect" : [ 443.5, 464.0, 50.0, 22.0 ],
					"text" : "disable"
				}

			}
, 			{
				"box" : 				{
					"id" : "obj-472",
					"maxclass" : "message",
					"numinlets" : 2,
					"numoutlets" : 1,
					"outlettype" : [ "" ],
					"patching_rect" : [ 390.0, 464.0, 50.0, 22.0 ],
					"text" : "enable"
				}

			}
, 			{
				"box" : 				{
					"id" : "obj-459",
					"maxclass" : "message",
					"numinlets" : 2,
					"numoutlets" : 1,
					"outlettype" : [ "" ],
					"patching_rect" : [ 210.0, 524.0, 140.0, 22.0 ],
					"text" : "$1-sensor gyroscope $2"
				}

			}
, 			{
				"box" : 				{
					"id" : "obj-461",
					"maxclass" : "newobj",
					"numinlets" : 2,
					"numoutlets" : 1,
					"outlettype" : [ "" ],
					"patching_rect" : [ 210.0, 496.0, 140.0, 22.0 ],
					"text" : "pack enable 20",
					"textjustification" : 1
				}

			}
, 			{
				"box" : 				{
					"id" : "obj-462",
					"maxclass" : "toggle",
					"numinlets" : 1,
					"numoutlets" : 1,
					"outlettype" : [ "int" ],
					"parameter_enable" : 0,
					"patching_rect" : [ 210.0, 401.0, 24.0, 24.0 ]
				}

			}
, 			{
				"box" : 				{
					"id" : "obj-463",
					"maxclass" : "newobj",
					"numinlets" : 2,
					"numoutlets" : 2,
					"outlettype" : [ "bang", "" ],
					"patching_rect" : [ 210.0, 435.0, 103.5, 22.0 ],
					"text" : "select 1",
					"textjustification" : 1
				}

			}
, 			{
				"box" : 				{
					"id" : "obj-464",
					"maxclass" : "message",
					"numinlets" : 2,
					"numoutlets" : 1,
					"outlettype" : [ "" ],
					"patching_rect" : [ 263.5, 464.0, 50.0, 22.0 ],
					"text" : "disable"
				}

			}
, 			{
				"box" : 				{
					"id" : "obj-465",
					"maxclass" : "message",
					"numinlets" : 2,
					"numoutlets" : 1,
					"outlettype" : [ "" ],
					"patching_rect" : [ 210.0, 464.0, 50.0, 22.0 ],
					"text" : "enable"
				}

			}
, 			{
				"box" : 				{
					"id" : "obj-435",
					"maxclass" : "message",
					"numinlets" : 2,
					"numoutlets" : 1,
					"outlettype" : [ "" ],
					"patching_rect" : [ 12.0, 524.0, 164.0, 22.0 ],
					"text" : "$1-sensor accelerometer $2"
				}

			}
, 			{
				"box" : 				{
					"id" : "obj-434",
					"items" : [ 20, ",", 40, ",", 80, ",", 160, ",", 320 ],
					"maxclass" : "umenu",
					"numinlets" : 1,
					"numoutlets" : 3,
					"outlettype" : [ "int", "", "" ],
					"parameter_enable" : 1,
					"patching_rect" : [ 66.0, 403.0, 48.0, 22.0 ],
					"saved_attribute_attributes" : 					{
						"valueof" : 						{
							"parameter_shortname" : "umenu",
							"parameter_enum" : [ "20", "40", "80", "160", "320" ],
							"parameter_type" : 2,
							"parameter_longname" : "umenu[6]",
							"parameter_mmax" : 4
						}

					}
,
					"varname" : "umenu[6]"
				}

			}
, 			{
				"box" : 				{
					"id" : "obj-433",
					"maxclass" : "newobj",
					"numinlets" : 2,
					"numoutlets" : 1,
					"outlettype" : [ "" ],
					"patching_rect" : [ 12.0, 496.0, 164.0, 22.0 ],
					"text" : "pack enable 20",
					"textjustification" : 1
				}

			}
, 			{
				"box" : 				{
					"id" : "obj-432",
					"maxclass" : "toggle",
					"numinlets" : 1,
					"numoutlets" : 1,
					"outlettype" : [ "int" ],
					"parameter_enable" : 0,
					"patching_rect" : [ 12.0, 401.0, 24.0, 24.0 ]
				}

			}
, 			{
				"box" : 				{
					"id" : "obj-429",
					"maxclass" : "newobj",
					"numinlets" : 2,
					"numoutlets" : 2,
					"outlettype" : [ "bang", "" ],
					"patching_rect" : [ 12.0, 435.0, 103.5, 22.0 ],
					"text" : "select 1",
					"textjustification" : 1
				}

			}
, 			{
				"box" : 				{
					"id" : "obj-428",
					"maxclass" : "message",
					"numinlets" : 2,
					"numoutlets" : 1,
					"outlettype" : [ "" ],
					"patching_rect" : [ 65.5, 464.0, 50.0, 22.0 ],
					"text" : "disable"
				}

			}
, 			{
				"box" : 				{
					"id" : "obj-427",
					"maxclass" : "message",
					"numinlets" : 2,
					"numoutlets" : 1,
					"outlettype" : [ "" ],
					"patching_rect" : [ 12.0, 464.0, 50.0, 22.0 ],
					"text" : "enable"
				}

			}
, 			{
				"box" : 				{
					"bgcolor" : [ 0.996078431372549, 0.996078431372549, 0.996078431372549, 0.51 ],
					"bubblepoint" : 0.0,
					"bubbleside" : 0,
					"bubbletextmargin" : 4,
					"id" : "obj-520",
					"maxclass" : "comment",
					"numinlets" : 0,
					"numoutlets" : 0,
					"patching_rect" : [ 1045.0, 375.0, 134.0, 20.0 ],
					"suppressinlet" : 1,
					"text" : "Head Shake",
					"textjustification" : 1
				}

			}
, 			{
				"box" : 				{
					"bgcolor" : [ 0.996078431372549, 0.996078431372549, 0.996078431372549, 0.51 ],
					"bubblepoint" : 0.0,
					"bubbleside" : 0,
					"bubbletextmargin" : 4,
					"id" : "obj-509",
					"maxclass" : "comment",
					"numinlets" : 0,
					"numoutlets" : 0,
					"patching_rect" : [ 748.0, 344.0, 431.0, 20.0 ],
					"suppressinlet" : 1,
					"text" : "Gestures",
					"textjustification" : 1
				}

			}
, 			{
				"box" : 				{
					"bgcolor" : [ 0.996078431372549, 0.996078431372549, 0.996078431372549, 0.51 ],
					"bubblepoint" : 0.0,
					"bubbleside" : 0,
					"bubbletextmargin" : 4,
					"id" : "obj-513",
					"maxclass" : "comment",
					"numinlets" : 0,
					"numoutlets" : 0,
					"patching_rect" : [ 895.0, 375.0, 127.0, 20.0 ],
					"suppressinlet" : 1,
					"text" : "Head Nod",
					"textjustification" : 1
				}

			}
, 			{
				"box" : 				{
					"bgcolor" : [ 0.996078431372549, 0.996078431372549, 0.996078431372549, 0.51 ],
					"bubblepoint" : 0.0,
					"bubbleside" : 0,
					"bubbletextmargin" : 4,
					"fontface" : 1,
					"id" : "obj-424",
					"maxclass" : "comment",
					"numinlets" : 0,
					"numoutlets" : 0,
					"patching_rect" : [ 16.5, 116.0, 1162.5, 20.0 ],
					"suppressinlet" : 1,
					"text" : "BoseAR Device #",
					"textjustification" : 1
				}

			}
, 			{
				"box" : 				{
					"bgcolor" : [ 0.996078431372549, 0.996078431372549, 0.996078431372549, 0.51 ],
					"bubblepoint" : 0.0,
					"bubbleside" : 0,
					"bubbletextmargin" : 4,
					"id" : "obj-512",
					"maxclass" : "comment",
					"numinlets" : 0,
					"numoutlets" : 0,
					"patching_rect" : [ 748.0, 375.0, 127.0, 20.0 ],
					"suppressinlet" : 1,
					"text" : "Double Tap",
					"textjustification" : 1
				}

			}
, 			{
				"box" : 				{
					"bgcolor" : [ 0.996078431372549, 0.996078431372549, 0.996078431372549, 0.51 ],
					"bubblepoint" : 0.0,
					"bubbleside" : 0,
					"bubbletextmargin" : 4,
					"id" : "obj-480",
					"maxclass" : "comment",
					"numinlets" : 0,
					"numoutlets" : 0,
					"patching_rect" : [ 560.0, 375.0, 158.0, 20.0 ],
					"suppressinlet" : 1,
					"text" : "Game Rotation",
					"textjustification" : 1
				}

			}
, 			{
				"box" : 				{
					"bgcolor" : [ 0.996078431372549, 0.996078431372549, 0.996078431372549, 0.51 ],
					"bubblepoint" : 0.0,
					"bubbleside" : 0,
					"bubbletextmargin" : 4,
					"id" : "obj-511",
					"maxclass" : "comment",
					"numinlets" : 0,
					"numoutlets" : 0,
					"patching_rect" : [ 16.5, 344.0, 701.5, 20.0 ],
					"suppressinlet" : 1,
					"text" : "Sensors",
					"textjustification" : 1
				}

			}
, 			{
				"box" : 				{
					"bgcolor" : [ 0.996078431372549, 0.996078431372549, 0.996078431372549, 0.51 ],
					"bubblepoint" : 0.0,
					"bubbleside" : 0,
					"bubbletextmargin" : 4,
					"id" : "obj-473",
					"maxclass" : "comment",
					"numinlets" : 0,
					"numoutlets" : 0,
					"patching_rect" : [ 390.0, 375.0, 140.0, 20.0 ],
					"suppressinlet" : 1,
					"text" : "Rotation",
					"textjustification" : 1
				}

			}
, 			{
				"box" : 				{
					"bgcolor" : [ 0.996078431372549, 0.996078431372549, 0.996078431372549, 0.51 ],
					"bubblepoint" : 0.0,
					"bubbleside" : 0,
					"bubbletextmargin" : 4,
					"id" : "obj-438",
					"maxclass" : "comment",
					"numinlets" : 0,
					"numoutlets" : 0,
					"patching_rect" : [ 210.0, 375.0, 140.0, 20.0 ],
					"suppressinlet" : 1,
					"text" : "Gyroscope",
					"textjustification" : 1
				}

			}
, 			{
				"box" : 				{
					"bgcolor" : [ 0.996078431372549, 0.996078431372549, 0.996078431372549, 0.51 ],
					"bubblepoint" : 0.0,
					"bubbleside" : 0,
					"bubbletextmargin" : 4,
					"id" : "obj-437",
					"maxclass" : "comment",
					"numinlets" : 0,
					"numoutlets" : 0,
					"patching_rect" : [ 16.5, 376.0, 164.0, 20.0 ],
					"suppressinlet" : 1,
					"text" : "Accelerometer",
					"textjustification" : 1
				}

			}
 ],
		"lines" : [ 			{
				"patchline" : 				{
					"destination" : [ "obj-2", 0 ],
					"midpoints" : [ 544.75, 165.0, 560.375, 165.0 ],
					"source" : [ "obj-1", 0 ]
				}

			}
, 			{
				"patchline" : 				{
					"destination" : [ "obj-8", 0 ],
					"midpoints" : [ 104.0, 33.0, 104.0, 33.0 ],
					"source" : [ "obj-10", 0 ]
				}

			}
, 			{
				"patchline" : 				{
					"destination" : [ "obj-3", 0 ],
					"midpoints" : [ 560.375, 189.0, 546.0, 189.0, 546.0, 186.0, 523.375, 186.0 ],
					"source" : [ "obj-2", 0 ]
				}

			}
, 			{
				"patchline" : 				{
					"destination" : [ "obj-36", 0 ],
					"midpoints" : [ 812.50000274181366, 34.99999988079071, 812.50000274181366, 34.99999988079071 ],
					"source" : [ "obj-21", 0 ]
				}

			}
, 			{
				"patchline" : 				{
					"destination" : [ "obj-10", 0 ],
					"midpoints" : [ 26.0, 42.0, 90.0, 42.0, 90.0, 6.0, 104.0, 6.0 ],
					"source" : [ "obj-26", 0 ]
				}

			}
, 			{
				"patchline" : 				{
					"destination" : [ "obj-5", 0 ],
					"midpoints" : [ 600.875, 222.0, 810.0, 222.0, 810.0, 198.0, 834.0, 198.0 ],
					"source" : [ "obj-3", 1 ]
				}

			}
, 			{
				"patchline" : 				{
					"destination" : [ "obj-6", 0 ],
					"midpoints" : [ 523.375, 213.0, 447.0, 213.0, 447.0, 189.0, 149.0, 189.0 ],
					"source" : [ "obj-3", 0 ]
				}

			}
, 			{
				"patchline" : 				{
					"destination" : [ "obj-65", 0 ],
					"midpoints" : [ 62.75, 309.0, 62.75, 309.0 ],
					"source" : [ "obj-40", 0 ]
				}

			}
, 			{
				"patchline" : 				{
					"destination" : [ "obj-433", 0 ],
					"source" : [ "obj-427", 0 ]
				}

			}
, 			{
				"patchline" : 				{
					"destination" : [ "obj-433", 0 ],
					"source" : [ "obj-428", 0 ]
				}

			}
, 			{
				"patchline" : 				{
					"destination" : [ "obj-427", 0 ],
					"source" : [ "obj-429", 0 ]
				}

			}
, 			{
				"patchline" : 				{
					"destination" : [ "obj-428", 0 ],
					"midpoints" : [ 106.0, 460.0, 75.0, 460.0 ],
					"source" : [ "obj-429", 1 ]
				}

			}
, 			{
				"patchline" : 				{
					"destination" : [ "obj-429", 0 ],
					"source" : [ "obj-432", 0 ]
				}

			}
, 			{
				"patchline" : 				{
					"destination" : [ "obj-435", 0 ],
					"source" : [ "obj-433", 0 ]
				}

			}
, 			{
				"patchline" : 				{
					"destination" : [ "obj-761", 0 ],
					"midpoints" : [ 90.0, 427.0, 142.0, 427.0 ],
					"source" : [ "obj-434", 1 ]
				}

			}
, 			{
				"patchline" : 				{
					"destination" : [ "obj-494", 0 ],
					"midpoints" : [ 21.5, 558.0, 557.5, 558.0 ],
					"source" : [ "obj-435", 0 ]
				}

			}
, 			{
				"patchline" : 				{
					"destination" : [ "obj-40", 0 ],
					"midpoints" : [ 62.75, 279.0, 61.25, 279.0 ],
					"source" : [ "obj-45", 0 ]
				}

			}
, 			{
				"patchline" : 				{
					"destination" : [ "obj-53", 0 ],
					"midpoints" : [ 143.75, 276.0, 128.0, 276.0 ],
					"source" : [ "obj-45", 1 ]
				}

			}
, 			{
				"patchline" : 				{
					"destination" : [ "obj-494", 0 ],
					"midpoints" : [ 219.5, 558.0, 557.5, 558.0 ],
					"source" : [ "obj-459", 0 ]
				}

			}
, 			{
				"patchline" : 				{
					"destination" : [ "obj-459", 0 ],
					"source" : [ "obj-461", 0 ]
				}

			}
, 			{
				"patchline" : 				{
					"destination" : [ "obj-463", 0 ],
					"midpoints" : [ 219.5, 427.0, 219.5, 427.0 ],
					"source" : [ "obj-462", 0 ]
				}

			}
, 			{
				"patchline" : 				{
					"destination" : [ "obj-464", 0 ],
					"midpoints" : [ 304.0, 460.0, 273.0, 460.0 ],
					"source" : [ "obj-463", 1 ]
				}

			}
, 			{
				"patchline" : 				{
					"destination" : [ "obj-465", 0 ],
					"midpoints" : [ 219.5, 460.0, 219.5, 460.0 ],
					"source" : [ "obj-463", 0 ]
				}

			}
, 			{
				"patchline" : 				{
					"destination" : [ "obj-461", 0 ],
					"source" : [ "obj-464", 0 ]
				}

			}
, 			{
				"patchline" : 				{
					"destination" : [ "obj-461", 0 ],
					"source" : [ "obj-465", 0 ]
				}

			}
, 			{
				"patchline" : 				{
					"destination" : [ "obj-494", 0 ],
					"midpoints" : [ 399.5, 558.0, 557.5, 558.0 ],
					"source" : [ "obj-466", 0 ]
				}

			}
, 			{
				"patchline" : 				{
					"destination" : [ "obj-466", 0 ],
					"source" : [ "obj-468", 0 ]
				}

			}
, 			{
				"patchline" : 				{
					"destination" : [ "obj-470", 0 ],
					"midpoints" : [ 399.5, 430.0, 414.25, 430.0 ],
					"source" : [ "obj-469", 0 ]
				}

			}
, 			{
				"patchline" : 				{
					"destination" : [ "obj-471", 0 ],
					"midpoints" : [ 475.75, 460.0, 453.0, 460.0 ],
					"source" : [ "obj-470", 1 ]
				}

			}
, 			{
				"patchline" : 				{
					"destination" : [ "obj-472", 0 ],
					"midpoints" : [ 414.25, 460.0, 399.5, 460.0 ],
					"source" : [ "obj-470", 0 ]
				}

			}
, 			{
				"patchline" : 				{
					"destination" : [ "obj-468", 0 ],
					"source" : [ "obj-471", 0 ]
				}

			}
, 			{
				"patchline" : 				{
					"destination" : [ "obj-468", 0 ],
					"source" : [ "obj-472", 0 ]
				}

			}
, 			{
				"patchline" : 				{
					"destination" : [ "obj-494", 0 ],
					"midpoints" : [ 569.5, 549.0, 557.5, 549.0 ],
					"source" : [ "obj-474", 0 ]
				}

			}
, 			{
				"patchline" : 				{
					"destination" : [ "obj-474", 0 ],
					"source" : [ "obj-476", 0 ]
				}

			}
, 			{
				"patchline" : 				{
					"destination" : [ "obj-478", 0 ],
					"source" : [ "obj-477", 0 ]
				}

			}
, 			{
				"patchline" : 				{
					"destination" : [ "obj-479", 0 ],
					"source" : [ "obj-478", 1 ]
				}

			}
, 			{
				"patchline" : 				{
					"destination" : [ "obj-481", 0 ],
					"source" : [ "obj-478", 0 ]
				}

			}
, 			{
				"patchline" : 				{
					"destination" : [ "obj-476", 0 ],
					"source" : [ "obj-479", 0 ]
				}

			}
, 			{
				"patchline" : 				{
					"destination" : [ "obj-476", 0 ],
					"source" : [ "obj-481", 0 ]
				}

			}
, 			{
				"patchline" : 				{
					"destination" : [ "obj-762", 0 ],
					"midpoints" : [ 270.5, 430.0, 331.0, 430.0 ],
					"source" : [ "obj-488", 1 ]
				}

			}
, 			{
				"patchline" : 				{
					"destination" : [ "obj-763", 0 ],
					"midpoints" : [ 445.0, 427.0, 504.5, 427.0 ],
					"source" : [ "obj-489", 1 ]
				}

			}
, 			{
				"patchline" : 				{
					"destination" : [ "obj-764", 0 ],
					"midpoints" : [ 632.25, 427.0, 692.5, 427.0 ],
					"source" : [ "obj-490", 1 ]
				}

			}
, 			{
				"patchline" : 				{
					"destination" : [ "obj-530", 0 ],
					"source" : [ "obj-494", 0 ]
				}

			}
, 			{
				"patchline" : 				{
					"destination" : [ "obj-87", 0 ],
					"midpoints" : [ 896.5, 267.0, 799.333333432674408, 267.0 ],
					"source" : [ "obj-5", 1 ]
				}

			}
, 			{
				"patchline" : 				{
					"destination" : [ "obj-90", 0 ],
					"midpoints" : [ 959.0, 267.0, 947.916666865348816, 267.0 ],
					"source" : [ "obj-5", 2 ]
				}

			}
, 			{
				"patchline" : 				{
					"destination" : [ "obj-91", 0 ],
					"midpoints" : [ 1021.5, 270.0, 1099.833333432674408, 270.0 ],
					"source" : [ "obj-5", 3 ]
				}

			}
, 			{
				"patchline" : 				{
					"destination" : [ "obj-505", 0 ],
					"source" : [ "obj-503", 0 ]
				}

			}
, 			{
				"patchline" : 				{
					"destination" : [ "obj-494", 0 ],
					"midpoints" : [ 757.5, 558.0, 557.5, 558.0 ],
					"source" : [ "obj-504", 0 ]
				}

			}
, 			{
				"patchline" : 				{
					"destination" : [ "obj-504", 0 ],
					"source" : [ "obj-505", 0 ]
				}

			}
, 			{
				"patchline" : 				{
					"destination" : [ "obj-507", 0 ],
					"source" : [ "obj-506", 0 ]
				}

			}
, 			{
				"patchline" : 				{
					"destination" : [ "obj-503", 0 ],
					"source" : [ "obj-507", 0 ]
				}

			}
, 			{
				"patchline" : 				{
					"destination" : [ "obj-508", 0 ],
					"source" : [ "obj-507", 1 ]
				}

			}
, 			{
				"patchline" : 				{
					"destination" : [ "obj-505", 0 ],
					"source" : [ "obj-508", 0 ]
				}

			}
, 			{
				"patchline" : 				{
					"destination" : [ "obj-516", 0 ],
					"source" : [ "obj-514", 0 ]
				}

			}
, 			{
				"patchline" : 				{
					"destination" : [ "obj-494", 0 ],
					"midpoints" : [ 904.5, 558.0, 557.5, 558.0 ],
					"source" : [ "obj-515", 0 ]
				}

			}
, 			{
				"patchline" : 				{
					"destination" : [ "obj-515", 0 ],
					"source" : [ "obj-516", 0 ]
				}

			}
, 			{
				"patchline" : 				{
					"destination" : [ "obj-518", 0 ],
					"source" : [ "obj-517", 0 ]
				}

			}
, 			{
				"patchline" : 				{
					"destination" : [ "obj-514", 0 ],
					"source" : [ "obj-518", 0 ]
				}

			}
, 			{
				"patchline" : 				{
					"destination" : [ "obj-519", 0 ],
					"source" : [ "obj-518", 1 ]
				}

			}
, 			{
				"patchline" : 				{
					"destination" : [ "obj-516", 0 ],
					"source" : [ "obj-519", 0 ]
				}

			}
, 			{
				"patchline" : 				{
					"destination" : [ "obj-65", 0 ],
					"midpoints" : [ 84.5, 309.0, 62.75, 309.0 ],
					"source" : [ "obj-52", 0 ]
				}

			}
, 			{
				"patchline" : 				{
					"destination" : [ "obj-494", 0 ],
					"midpoints" : [ 1054.5, 558.0, 557.5, 558.0 ],
					"source" : [ "obj-521", 0 ]
				}

			}
, 			{
				"patchline" : 				{
					"destination" : [ "obj-521", 0 ],
					"source" : [ "obj-522", 0 ]
				}

			}
, 			{
				"patchline" : 				{
					"destination" : [ "obj-524", 0 ],
					"source" : [ "obj-523", 0 ]
				}

			}
, 			{
				"patchline" : 				{
					"destination" : [ "obj-525", 0 ],
					"source" : [ "obj-524", 1 ]
				}

			}
, 			{
				"patchline" : 				{
					"destination" : [ "obj-526", 0 ],
					"source" : [ "obj-524", 0 ]
				}

			}
, 			{
				"patchline" : 				{
					"destination" : [ "obj-522", 0 ],
					"source" : [ "obj-525", 0 ]
				}

			}
, 			{
				"patchline" : 				{
					"destination" : [ "obj-522", 0 ],
					"source" : [ "obj-526", 0 ]
				}

			}
, 			{
				"patchline" : 				{
					"destination" : [ "obj-52", 0 ],
					"midpoints" : [ 128.0, 306.0, 105.0, 306.0, 105.0, 279.0, 84.5, 279.0 ],
					"source" : [ "obj-53", 0 ]
				}

			}
, 			{
				"patchline" : 				{
					"destination" : [ "obj-66", 0 ],
					"midpoints" : [ 142.25, 306.0, 122.125, 306.0 ],
					"source" : [ "obj-53", 1 ]
				}

			}
, 			{
				"patchline" : 				{
					"destination" : [ "obj-548", 0 ],
					"midpoints" : [ 769.375, 897.33333420753479, 809.125, 897.33333420753479 ],
					"source" : [ "obj-551", 0 ]
				}

			}
, 			{
				"patchline" : 				{
					"destination" : [ "obj-45", 0 ],
					"midpoints" : [ 149.0, 240.0, 62.75, 240.0 ],
					"source" : [ "obj-6", 0 ]
				}

			}
, 			{
				"patchline" : 				{
					"destination" : [ "obj-71", 0 ],
					"midpoints" : [ 218.75, 240.0, 239.5, 240.0 ],
					"source" : [ "obj-6", 1 ]
				}

			}
, 			{
				"patchline" : 				{
					"destination" : [ "obj-77", 0 ],
					"midpoints" : [ 288.5, 237.0, 419.5, 237.0 ],
					"source" : [ "obj-6", 2 ]
				}

			}
, 			{
				"patchline" : 				{
					"destination" : [ "obj-83", 0 ],
					"midpoints" : [ 358.25, 237.0, 598.5, 237.0 ],
					"source" : [ "obj-6", 3 ]
				}

			}
, 			{
				"patchline" : 				{
					"destination" : [ "obj-62", 0 ],
					"midpoints" : [ 660.499998211860657, 138.0, 678.0, 138.0, 678.0, 177.0, 729.0, 177.0, 729.0, 555.0, 712.16666567325592, 555.0 ],
					"order" : 0,
					"source" : [ "obj-60", 0 ]
				}

			}
, 			{
				"patchline" : 				{
					"destination" : [ "obj-767", 1 ],
					"midpoints" : [ 660.499998211860657, 138.0, 678.0, 138.0, 678.0, 177.0, 729.0, 177.0, 729.0, 558.0, 684.0, 558.0, 684.0, 696.0, 642.0, 696.0, 642.0, 687.0, 633.125, 687.0 ],
					"order" : 1,
					"source" : [ "obj-60", 0 ]
				}

			}
, 			{
				"patchline" : 				{
					"destination" : [ "obj-494", 0 ],
					"midpoints" : [ 712.16666567325592, 621.0, 534.0, 621.0, 534.0, 558.0, 557.5, 558.0 ],
					"source" : [ "obj-62", 0 ]
				}

			}
, 			{
				"patchline" : 				{
					"destination" : [ "obj-432", 0 ],
					"midpoints" : [ 62.75, 336.0, 3.0, 336.0, 3.0, 396.0, 21.5, 396.0 ],
					"source" : [ "obj-65", 0 ]
				}

			}
, 			{
				"patchline" : 				{
					"destination" : [ "obj-434", 0 ],
					"midpoints" : [ 122.125, 336.0, 39.0, 336.0, 39.0, 330.0, 3.0, 330.0, 3.0, 396.0, 75.5, 396.0 ],
					"source" : [ "obj-66", 0 ]
				}

			}
, 			{
				"patchline" : 				{
					"destination" : [ "obj-558", 0 ],
					"midpoints" : [ 56.375, 816.33333420753479, 3.375, 816.33333420753479, 3.375, 918.33333420753479, 27.375, 918.33333420753479 ],
					"source" : [ "obj-665", 1 ]
				}

			}
, 			{
				"patchline" : 				{
					"destination" : [ "obj-587", 0 ],
					"midpoints" : [ 27.375, 816.33333420753479, 3.375, 816.33333420753479, 3.375, 855.33333420753479, 27.375, 855.33333420753479 ],
					"source" : [ "obj-665", 0 ]
				}

			}
, 			{
				"patchline" : 				{
					"destination" : [ "obj-701", 0 ],
					"midpoints" : [ 85.375, 816.33333420753479, 3.375, 816.33333420753479, 3.375, 981.33333420753479, 27.375, 981.33333420753479 ],
					"source" : [ "obj-665", 2 ]
				}

			}
, 			{
				"patchline" : 				{
					"destination" : [ "obj-703", 0 ],
					"midpoints" : [ 114.375, 816.33333420753479, 135.375, 816.33333420753479, 135.375, 1044.33333420753479, 27.375, 1044.33333420753479 ],
					"source" : [ "obj-665", 3 ]
				}

			}
, 			{
				"patchline" : 				{
					"destination" : [ "obj-488", 0 ],
					"midpoints" : [ 298.875, 336.0, 216.0, 336.0, 216.0, 330.0, 156.0, 330.0, 156.0, 336.0, 39.0, 336.0, 39.0, 330.0, 3.0, 330.0, 3.0, 372.0, 192.0, 372.0, 192.0, 396.0, 256.0, 396.0 ],
					"source" : [ "obj-67", 0 ]
				}

			}
, 			{
				"patchline" : 				{
					"destination" : [ "obj-462", 0 ],
					"midpoints" : [ 239.5, 336.0, 216.0, 336.0, 216.0, 330.0, 156.0, 330.0, 156.0, 336.0, 39.0, 336.0, 39.0, 330.0, 3.0, 330.0, 3.0, 372.0, 192.0, 372.0, 192.0, 396.0, 219.5, 396.0 ],
					"source" : [ "obj-68", 0 ]
				}

			}
, 			{
				"patchline" : 				{
					"destination" : [ "obj-67", 0 ],
					"midpoints" : [ 319.0, 306.0, 298.875, 306.0 ],
					"source" : [ "obj-69", 1 ]
				}

			}
, 			{
				"patchline" : 				{
					"destination" : [ "obj-70", 0 ],
					"midpoints" : [ 304.75, 306.0, 281.75, 306.0, 281.75, 279.0, 261.25, 279.0 ],
					"source" : [ "obj-69", 0 ]
				}

			}
, 			{
				"patchline" : 				{
					"destination" : [ "obj-68", 0 ],
					"midpoints" : [ 261.25, 309.0, 239.5, 309.0 ],
					"source" : [ "obj-70", 0 ]
				}

			}
, 			{
				"patchline" : 				{
					"destination" : [ "obj-21", 0 ],
					"midpoints" : [ 779.12500274181366, 37.99999988079071, 800.00000274181366, 37.99999988079071, 800.00000274181366, 7.99999988079071, 812.50000274181366, 7.99999988079071 ],
					"source" : [ "obj-700", 0 ]
				}

			}
, 			{
				"patchline" : 				{
					"destination" : [ "obj-705", 0 ],
					"midpoints" : [ 323.875, 816.33333420753479, 213.375, 816.33333420753479, 213.375, 1044.33333420753479, 236.875, 1044.33333420753479 ],
					"source" : [ "obj-709", 3 ]
				}

			}
, 			{
				"patchline" : 				{
					"destination" : [ "obj-707", 0 ],
					"midpoints" : [ 294.875, 816.33333420753479, 213.375, 816.33333420753479, 213.375, 981.33333420753479, 236.875, 981.33333420753479 ],
					"source" : [ "obj-709", 2 ]
				}

			}
, 			{
				"patchline" : 				{
					"destination" : [ "obj-710", 0 ],
					"midpoints" : [ 236.875, 816.33333420753479, 213.375, 816.33333420753479, 213.375, 855.33333420753479, 236.875, 855.33333420753479 ],
					"source" : [ "obj-709", 0 ]
				}

			}
, 			{
				"patchline" : 				{
					"destination" : [ "obj-712", 0 ],
					"midpoints" : [ 265.875, 816.33333420753479, 213.375, 816.33333420753479, 213.375, 918.33333420753479, 236.875, 918.33333420753479 ],
					"source" : [ "obj-709", 1 ]
				}

			}
, 			{
				"patchline" : 				{
					"destination" : [ "obj-69", 0 ],
					"midpoints" : [ 320.5, 276.0, 304.75, 276.0 ],
					"source" : [ "obj-71", 1 ]
				}

			}
, 			{
				"patchline" : 				{
					"destination" : [ "obj-72", 0 ],
					"midpoints" : [ 239.5, 279.0, 238.0, 279.0 ],
					"source" : [ "obj-71", 0 ]
				}

			}
, 			{
				"patchline" : 				{
					"destination" : [ "obj-714", 0 ],
					"midpoints" : [ 454.160714285714278, 831.33333420753479, 393.375, 831.33333420753479, 393.375, 1044.33333420753479, 416.875, 1044.33333420753479 ],
					"source" : [ "obj-718", 3 ]
				}

			}
, 			{
				"patchline" : 				{
					"destination" : [ "obj-716", 0 ],
					"midpoints" : [ 441.73214285714289, 831.33333420753479, 393.375, 831.33333420753479, 393.375, 981.33333420753479, 416.875, 981.33333420753479 ],
					"source" : [ "obj-718", 2 ]
				}

			}
, 			{
				"patchline" : 				{
					"destination" : [ "obj-719", 0 ],
					"midpoints" : [ 416.875, 831.33333420753479, 402.375, 831.33333420753479, 402.375, 855.33333420753479, 416.875, 855.33333420753479 ],
					"source" : [ "obj-718", 0 ]
				}

			}
, 			{
				"patchline" : 				{
					"destination" : [ "obj-721", 0 ],
					"midpoints" : [ 429.303571428571445, 831.33333420753479, 393.375, 831.33333420753479, 393.375, 918.33333420753479, 416.875, 918.33333420753479 ],
					"source" : [ "obj-718", 1 ]
				}

			}
, 			{
				"patchline" : 				{
					"destination" : [ "obj-723", 0 ],
					"midpoints" : [ 466.589285714285722, 831.33333420753479, 393.375, 831.33333420753479, 393.375, 1110.33333420753479, 416.875, 1110.33333420753479 ],
					"source" : [ "obj-718", 4 ]
				}

			}
, 			{
				"patchline" : 				{
					"destination" : [ "obj-725", 0 ],
					"midpoints" : [ 479.01785714285711, 831.33333420753479, 393.375, 831.33333420753479, 393.375, 1182.33333420753479, 416.875, 1182.33333420753479 ],
					"source" : [ "obj-718", 5 ]
				}

			}
, 			{
				"patchline" : 				{
					"destination" : [ "obj-727", 0 ],
					"midpoints" : [ 491.446428571428555, 831.33333420753479, 393.375, 831.33333420753479, 393.375, 1245.33333420753479, 416.875, 1245.33333420753479 ],
					"source" : [ "obj-718", 6 ]
				}

			}
, 			{
				"patchline" : 				{
					"destination" : [ "obj-729", 0 ],
					"midpoints" : [ 503.875, 831.33333420753479, 525.375, 831.33333420753479, 525.375, 1146.33333420753479, 393.375, 1146.33333420753479, 393.375, 1314.33333420753479, 416.875, 1314.33333420753479 ],
					"source" : [ "obj-718", 7 ]
				}

			}
, 			{
				"patchline" : 				{
					"destination" : [ "obj-68", 0 ],
					"midpoints" : [ 239.5, 309.0, 239.5, 309.0 ],
					"source" : [ "obj-72", 0 ]
				}

			}
, 			{
				"patchline" : 				{
					"destination" : [ "obj-489", 0 ],
					"midpoints" : [ 478.875, 333.0, 522.0, 333.0, 522.0, 327.0, 576.0, 327.0, 576.0, 333.0, 702.0, 333.0, 702.0, 327.0, 729.0, 327.0, 729.0, 399.0, 430.5, 399.0 ],
					"source" : [ "obj-73", 0 ]
				}

			}
, 			{
				"patchline" : 				{
					"destination" : [ "obj-469", 0 ],
					"midpoints" : [ 419.5, 333.0, 396.0, 333.0, 396.0, 237.0, 729.0, 237.0, 729.0, 399.0, 399.5, 399.0 ],
					"source" : [ "obj-74", 0 ]
				}

			}
, 			{
				"patchline" : 				{
					"destination" : [ "obj-732", 0 ],
					"midpoints" : [ 676.125, 831.33333420753479, 696.375, 831.33333420753479, 696.375, 1146.33333420753479, 564.375, 1146.33333420753479, 564.375, 1314.33333420753479, 589.125, 1314.33333420753479 ],
					"source" : [ "obj-744", 7 ]
				}

			}
, 			{
				"patchline" : 				{
					"destination" : [ "obj-734", 0 ],
					"midpoints" : [ 663.696428571428555, 831.33333420753479, 564.375, 831.33333420753479, 564.375, 1245.33333420753479, 589.125, 1245.33333420753479 ],
					"source" : [ "obj-744", 6 ]
				}

			}
, 			{
				"patchline" : 				{
					"destination" : [ "obj-736", 0 ],
					"midpoints" : [ 651.26785714285711, 831.33333420753479, 564.375, 831.33333420753479, 564.375, 1182.33333420753479, 589.125, 1182.33333420753479 ],
					"source" : [ "obj-744", 5 ]
				}

			}
, 			{
				"patchline" : 				{
					"destination" : [ "obj-738", 0 ],
					"midpoints" : [ 638.839285714285666, 831.33333420753479, 564.375, 831.33333420753479, 564.375, 1110.33333420753479, 589.125, 1110.33333420753479 ],
					"source" : [ "obj-744", 4 ]
				}

			}
, 			{
				"patchline" : 				{
					"destination" : [ "obj-740", 0 ],
					"midpoints" : [ 626.410714285714334, 831.33333420753479, 564.375, 831.33333420753479, 564.375, 1044.33333420753479, 589.125, 1044.33333420753479 ],
					"source" : [ "obj-744", 3 ]
				}

			}
, 			{
				"patchline" : 				{
					"destination" : [ "obj-742", 0 ],
					"midpoints" : [ 613.98214285714289, 831.33333420753479, 564.375, 831.33333420753479, 564.375, 981.33333420753479, 589.125, 981.33333420753479 ],
					"source" : [ "obj-744", 2 ]
				}

			}
, 			{
				"patchline" : 				{
					"destination" : [ "obj-745", 0 ],
					"midpoints" : [ 589.125, 831.33333420753479, 576.375, 831.33333420753479, 576.375, 855.33333420753479, 589.125, 855.33333420753479 ],
					"source" : [ "obj-744", 0 ]
				}

			}
, 			{
				"patchline" : 				{
					"destination" : [ "obj-747", 0 ],
					"midpoints" : [ 601.553571428571445, 831.33333420753479, 564.375, 831.33333420753479, 564.375, 918.33333420753479, 589.125, 918.33333420753479 ],
					"source" : [ "obj-744", 1 ]
				}

			}
, 			{
				"patchline" : 				{
					"destination" : [ "obj-73", 0 ],
					"midpoints" : [ 499.0, 302.0, 478.875, 302.0 ],
					"source" : [ "obj-75", 1 ]
				}

			}
, 			{
				"patchline" : 				{
					"destination" : [ "obj-76", 0 ],
					"midpoints" : [ 484.75, 302.0, 461.75, 302.0, 461.75, 275.0, 441.25, 275.0 ],
					"source" : [ "obj-75", 0 ]
				}

			}
, 			{
				"patchline" : 				{
					"destination" : [ "obj-755", 0 ],
					"midpoints" : [ 916.375, 897.33333420753479, 956.125, 897.33333420753479 ],
					"source" : [ "obj-754", 0 ]
				}

			}
, 			{
				"patchline" : 				{
					"destination" : [ "obj-758", 0 ],
					"midpoints" : [ 1069.375, 894.33333420753479, 1109.125, 894.33333420753479 ],
					"source" : [ "obj-757", 0 ]
				}

			}
, 			{
				"patchline" : 				{
					"destination" : [ "obj-74", 0 ],
					"midpoints" : [ 441.25, 305.0, 419.5, 305.0 ],
					"source" : [ "obj-76", 0 ]
				}

			}
, 			{
				"patchline" : 				{
					"destination" : [ "obj-8", 0 ],
					"midpoints" : [ 183.0, 33.0, 104.0, 33.0 ],
					"source" : [ "obj-760", 0 ]
				}

			}
, 			{
				"patchline" : 				{
					"destination" : [ "obj-433", 1 ],
					"midpoints" : [ 158.0, 481.0, 166.5, 481.0 ],
					"source" : [ "obj-761", 1 ]
				}

			}
, 			{
				"patchline" : 				{
					"destination" : [ "obj-433", 0 ],
					"midpoints" : [ 142.0, 481.0, 117.0, 481.0, 117.0, 487.0, 21.5, 487.0 ],
					"source" : [ "obj-761", 0 ]
				}

			}
, 			{
				"patchline" : 				{
					"destination" : [ "obj-461", 1 ],
					"midpoints" : [ 347.0, 481.0, 340.5, 481.0 ],
					"source" : [ "obj-762", 1 ]
				}

			}
, 			{
				"patchline" : 				{
					"destination" : [ "obj-461", 0 ],
					"midpoints" : [ 331.0, 481.0, 315.0, 481.0, 315.0, 487.0, 219.5, 487.0 ],
					"source" : [ "obj-762", 0 ]
				}

			}
, 			{
				"patchline" : 				{
					"destination" : [ "obj-468", 1 ],
					"midpoints" : [ 520.5, 460.0, 520.5, 460.0 ],
					"source" : [ "obj-763", 1 ]
				}

			}
, 			{
				"patchline" : 				{
					"destination" : [ "obj-468", 0 ],
					"midpoints" : [ 504.5, 490.0, 399.5, 490.0 ],
					"source" : [ "obj-763", 0 ]
				}

			}
, 			{
				"patchline" : 				{
					"destination" : [ "obj-476", 1 ],
					"midpoints" : [ 708.5, 460.0, 708.5, 460.0 ],
					"source" : [ "obj-764", 1 ]
				}

			}
, 			{
				"patchline" : 				{
					"destination" : [ "obj-476", 0 ],
					"midpoints" : [ 692.5, 481.0, 666.0, 481.0, 666.0, 490.0, 569.5, 490.0 ],
					"source" : [ "obj-764", 0 ]
				}

			}
, 			{
				"patchline" : 				{
					"destination" : [ "obj-767", 0 ],
					"source" : [ "obj-766", 0 ]
				}

			}
, 			{
				"patchline" : 				{
					"destination" : [ "obj-769", 0 ],
					"source" : [ "obj-767", 0 ]
				}

			}
, 			{
				"patchline" : 				{
					"destination" : [ "obj-772", 0 ],
					"midpoints" : [ 552.125, 744.33333420753479, 339.375, 744.33333420753479, 339.375, 750.33333420753479, 337.875, 750.33333420753479 ],
					"source" : [ "obj-769", 0 ]
				}

			}
, 			{
				"patchline" : 				{
					"destination" : [ "obj-776", 0 ],
					"midpoints" : [ 628.125, 750.33333420753479, 651.875, 750.33333420753479 ],
					"source" : [ "obj-769", 1 ]
				}

			}
, 			{
				"patchline" : 				{
					"destination" : [ "obj-75", 0 ],
					"midpoints" : [ 500.5, 272.0, 484.75, 272.0 ],
					"source" : [ "obj-77", 1 ]
				}

			}
, 			{
				"patchline" : 				{
					"destination" : [ "obj-78", 0 ],
					"midpoints" : [ 419.5, 275.0, 418.0, 275.0 ],
					"source" : [ "obj-77", 0 ]
				}

			}
, 			{
				"patchline" : 				{
					"destination" : [ "obj-665", 0 ],
					"midpoints" : [ 337.875, 780.33333420753479, 27.375, 780.33333420753479 ],
					"source" : [ "obj-772", 0 ]
				}

			}
, 			{
				"patchline" : 				{
					"destination" : [ "obj-709", 0 ],
					"midpoints" : [ 407.875, 780.33333420753479, 393.375, 780.33333420753479, 393.375, 789.33333420753479, 236.875, 789.33333420753479 ],
					"source" : [ "obj-772", 1 ]
				}

			}
, 			{
				"patchline" : 				{
					"destination" : [ "obj-718", 0 ],
					"midpoints" : [ 477.875, 780.33333420753479, 416.875, 780.33333420753479 ],
					"source" : [ "obj-772", 2 ]
				}

			}
, 			{
				"patchline" : 				{
					"destination" : [ "obj-744", 0 ],
					"midpoints" : [ 547.875, 789.33333420753479, 589.125, 789.33333420753479 ],
					"source" : [ "obj-772", 3 ]
				}

			}
, 			{
				"patchline" : 				{
					"destination" : [ "obj-551", 0 ],
					"midpoints" : [ 714.375, 855.33333420753479, 769.375, 855.33333420753479 ],
					"source" : [ "obj-776", 1 ]
				}

			}
, 			{
				"patchline" : 				{
					"destination" : [ "obj-754", 0 ],
					"midpoints" : [ 776.875, 822.33333420753479, 891.375, 822.33333420753479, 891.375, 855.33333420753479, 916.375, 855.33333420753479 ],
					"source" : [ "obj-776", 2 ]
				}

			}
, 			{
				"patchline" : 				{
					"destination" : [ "obj-757", 0 ],
					"midpoints" : [ 839.375, 822.33333420753479, 1044.375, 822.33333420753479, 1044.375, 855.33333420753479, 1069.375, 855.33333420753479 ],
					"source" : [ "obj-776", 3 ]
				}

			}
, 			{
				"patchline" : 				{
					"destination" : [ "obj-74", 0 ],
					"midpoints" : [ 419.5, 305.0, 419.5, 305.0 ],
					"source" : [ "obj-78", 0 ]
				}

			}
, 			{
				"patchline" : 				{
					"destination" : [ "obj-490", 0 ],
					"midpoints" : [ 657.875, 333.0, 702.0, 333.0, 702.0, 327.0, 729.0, 327.0, 729.0, 399.0, 617.75, 399.0 ],
					"source" : [ "obj-79", 0 ]
				}

			}
, 			{
				"patchline" : 				{
					"destination" : [ "obj-695", 1 ],
					"midpoints" : [ 104.0, 69.0, 414.0, 69.0, 414.0, 9.0, 632.0, 9.0 ],
					"order" : 0,
					"source" : [ "obj-8", 0 ]
				}

			}
, 			{
				"patchline" : 				{
					"destination" : [ "obj-765", 0 ],
					"order" : 1,
					"source" : [ "obj-8", 0 ]
				}

			}
, 			{
				"patchline" : 				{
					"destination" : [ "obj-477", 0 ],
					"midpoints" : [ 598.5, 333.0, 702.0, 333.0, 702.0, 327.0, 729.0, 327.0, 729.0, 399.0, 569.5, 399.0 ],
					"source" : [ "obj-80", 0 ]
				}

			}
, 			{
				"patchline" : 				{
					"destination" : [ "obj-79", 0 ],
					"midpoints" : [ 678.0, 302.0, 657.875, 302.0 ],
					"source" : [ "obj-81", 1 ]
				}

			}
, 			{
				"patchline" : 				{
					"destination" : [ "obj-82", 0 ],
					"midpoints" : [ 663.75, 302.0, 640.75, 302.0, 640.75, 275.0, 620.25, 275.0 ],
					"source" : [ "obj-81", 0 ]
				}

			}
, 			{
				"patchline" : 				{
					"destination" : [ "obj-80", 0 ],
					"midpoints" : [ 620.25, 305.0, 598.5, 305.0 ],
					"source" : [ "obj-82", 0 ]
				}

			}
, 			{
				"patchline" : 				{
					"destination" : [ "obj-81", 0 ],
					"midpoints" : [ 679.5, 272.0, 663.75, 272.0 ],
					"source" : [ "obj-83", 1 ]
				}

			}
, 			{
				"patchline" : 				{
					"destination" : [ "obj-84", 0 ],
					"midpoints" : [ 598.5, 275.0, 597.0, 275.0 ],
					"source" : [ "obj-83", 0 ]
				}

			}
, 			{
				"patchline" : 				{
					"destination" : [ "obj-80", 0 ],
					"midpoints" : [ 598.5, 305.0, 598.5, 305.0 ],
					"source" : [ "obj-84", 0 ]
				}

			}
, 			{
				"patchline" : 				{
					"destination" : [ "obj-506", 0 ],
					"midpoints" : [ 799.333333432674408, 330.0, 735.0, 330.0, 735.0, 405.0, 795.0, 405.0, 795.0, 396.0, 809.25, 396.0 ],
					"source" : [ "obj-87", 0 ]
				}

			}
, 			{
				"patchline" : 				{
					"destination" : [ "obj-517", 0 ],
					"midpoints" : [ 947.916666865348816, 330.0, 735.0, 330.0, 735.0, 420.0, 795.0, 420.0, 795.0, 426.0, 834.0, 426.0, 834.0, 417.0, 933.0, 417.0, 933.0, 396.0, 956.25, 396.0 ],
					"source" : [ "obj-90", 0 ]
				}

			}
, 			{
				"patchline" : 				{
					"destination" : [ "obj-523", 0 ],
					"midpoints" : [ 1099.833333432674408, 330.0, 1191.0, 330.0, 1191.0, 405.0, 1122.0, 405.0, 1122.0, 396.0, 1106.25, 396.0 ],
					"source" : [ "obj-91", 0 ]
				}

			}
 ],
		"parameters" : 		{
			"obj-488" : [ "umenu[10]", "umenu", 0 ],
			"obj-434" : [ "umenu[6]", "umenu", 0 ],
			"obj-489" : [ "umenu[11]", "umenu", 0 ],
			"obj-490" : [ "umenu[7]", "umenu", 0 ],
			"parameterbanks" : 			{

			}

		}
,
		"dependency_cache" : [ 			{
				"name" : "app.js",
				"bootpath" : "~/Documents/GitHub/Bose-Frames-Web-SDK/bose-for-max",
				"patcherrelativepath" : ".",
				"type" : "TEXT",
				"implicit" : 1
			}
 ],
		"autosave" : 0
	}

}
